<svg width="32" height="32" viewBox="0 0 32 32" fill="none" xmlns="http://www.w3.org/2000/svg">
<g clip-path="url(#clip0)">
<path d="M19.364 9.92608H24.8537V11.2762H19.364V9.92608ZM13.8633 15.2678C15.0768 14.6792 15.7124 13.7838 15.7124 12.4003C15.7124 9.66388 13.7037 9 11.384 9H5V22.735H11.5629C14.0229 22.735 16.3316 21.5356 16.3316 18.7462C16.3316 17.0223 15.5281 15.7476 13.8633 15.2678ZM7.97736 11.3431H10.7704C11.8463 11.3431 12.8121 11.6471 12.8121 12.9135C12.8121 14.0795 12.0609 14.5481 10.996 14.5481H7.97736V11.3431ZM11.1556 20.4031H7.97461V16.6206H11.2189C12.5287 16.6206 13.357 17.1757 13.357 18.5816C13.357 19.9651 12.3691 20.4031 11.1556 20.4031ZM27 17.9066C27 14.9637 25.3022 12.5119 22.2313 12.5119C19.2457 12.5119 17.2149 14.7908 17.2149 17.7782C17.2149 20.8745 19.1383 23 22.2313 23C24.573 23 26.0892 21.9317 26.8184 19.6527H24.4437C24.185 20.5035 23.1338 20.9498 22.3166 20.9498C20.7371 20.9498 19.9116 20.0126 19.9116 18.4198H26.9807C26.989 18.2552 27 18.0823 27 17.9066ZM19.9116 16.696C19.9969 15.3877 20.8582 14.5704 22.146 14.5704C23.4998 14.5704 24.1767 15.3766 24.2951 16.696H19.9116Z" fill="white"/>
<g clip-path="url(#clip1)">
<path d="M237.485 1000V325.301H13.229V1000H237.485ZM125.386 233.127C203.588 233.127 252.265 181.318 252.265 116.574C250.808 50.37 203.591 -0.000976562 126.87 -0.000976562C50.161 -0.000976562 -0.0019989 50.371 -0.0019989 116.574C-0.0019989 181.321 48.663 233.127 123.922 233.127H125.379H125.386ZM361.61 1000H585.866V623.215C585.866 603.05 587.323 582.906 593.245 568.491C609.457 528.202 646.356 486.474 708.305 486.474C789.454 486.474 821.918 548.346 821.918 639.046V999.995H1046.16V613.129C1046.16 405.888 935.524 309.461 787.977 309.461C667 309.461 613.883 377.083 584.374 423.14H585.871V325.287H361.615C364.558 388.597 361.615 999.986 361.615 999.986L361.61 1000Z" fill="white"/>
</g>
</g>
<defs>
<clipPath id="clip0">
<rect width="32" height="32" fill="white"/>
</clipPath>
<clipPath id="clip1">
<rect width="1046.16" height="1000" fill="white"/>
</clipPath>
</defs>
</svg>
