<svg width="24" height="24" viewBox="0 0 24 24" fill="none" xmlns="http://www.w3.org/2000/svg">
<path d="M8.46899 15.6814L9.92182 15.2623L18.6693 6.41061C18.7383 6.33991 18.7767 6.2449 18.7762 6.14612C18.7758 6.04733 18.7365 5.95269 18.6668 5.88264L18.1429 5.35302C18.1091 5.31824 18.0686 5.29055 18.024 5.27156C17.9793 5.25258 17.9313 5.24268 17.8827 5.24245C17.8342 5.24222 17.7861 5.25166 17.7413 5.27022C17.6964 5.28878 17.6557 5.31609 17.6215 5.35055L8.89717 14.1792L8.46817 15.6806L8.46899 15.6814ZM19.18 4.30368L19.7038 4.83413C20.4265 5.56586 20.4331 6.74637 19.717 7.47067L10.7031 16.593L7.59779 17.4872C7.40821 17.5403 7.20531 17.516 7.03363 17.4196C6.86195 17.3233 6.7355 17.1628 6.68205 16.9733C6.64227 16.8371 6.64169 16.6924 6.6804 16.5559L7.58377 13.3881L16.5738 4.28966C16.7447 4.11754 16.9482 3.98118 17.1724 3.88853C17.3966 3.79588 17.637 3.74879 17.8796 3.75002C18.1222 3.75125 18.3621 3.80077 18.5854 3.89568C18.8086 3.9906 19.0108 4.12902 19.18 4.30286V4.30368ZM9.67679 5.25485C10.086 5.25485 10.4176 5.59061 10.4176 6.00473C10.4183 6.10263 10.3996 6.19969 10.3628 6.29038C10.3259 6.38106 10.2715 6.46358 10.2027 6.53322C10.1338 6.60287 10.052 6.65827 9.96176 6.69626C9.87153 6.73424 9.77469 6.75408 9.67679 6.75462H6.7134C5.895 6.75462 5.2317 7.42613 5.2317 8.25355V17.2505C5.2317 18.0787 5.895 18.7502 6.7134 18.7502H15.6036C16.422 18.7502 17.0861 18.0787 17.0861 17.2505V14.2518C17.0861 13.8377 17.4178 13.5019 17.827 13.5019C18.2362 13.5019 18.5678 13.8377 18.5678 14.2526V17.2505C18.5678 18.907 17.2404 20.25 15.6036 20.25H6.7134C5.0766 20.25 3.75 18.907 3.75 17.2505V8.25355C3.75 6.59787 5.0766 5.25485 6.7134 5.25485H9.67679Z" fill="white"/>
</svg>
