<svg width="57" height="49" viewBox="0 0 57 49" fill="none" xmlns="http://www.w3.org/2000/svg">
<path d="M14.0972 19.628C14.2892 19.364 14.3972 19.256 14.4212 19.304C14.4452 19.328 14.3612 19.484 14.1692 19.772C13.9532 20.108 13.7972 20.264 13.7012 20.24C13.6292 20.168 13.6172 20.204 13.6652 20.348C13.6892 20.468 13.6532 20.54 13.5572 20.564C13.4132 20.612 13.2932 20.828 13.1972 21.212C13.1492 21.38 13.0652 21.596 12.9452 21.86C12.8252 22.124 12.7052 22.352 12.5852 22.544C12.3212 23 12.1892 23.3 12.1892 23.444C12.1892 23.492 12.1052 23.66 11.9372 23.948C11.7932 24.212 11.4332 24.8 10.8572 25.712L10.2812 26.54C10.1372 26.66 10.0652 26.78 10.0652 26.9C10.0652 26.972 10.0172 27.056 9.92117 27.152C9.82517 27.272 9.70517 27.392 9.56117 27.512C9.41717 27.632 9.26117 27.74 9.09317 27.836C8.94917 27.932 8.82917 27.992 8.73317 28.016C8.22917 28.136 7.80917 28.172 7.47317 28.124C7.30517 28.076 7.16117 27.992 7.04117 27.872C6.96917 27.776 6.88517 27.74 6.78917 27.764C6.76517 27.788 6.71717 27.752 6.64517 27.656C6.59717 27.56 6.53717 27.44 6.46517 27.296C6.24917 26.912 6.04517 26.6 5.85317 26.36C5.68517 26.12 5.57717 26.024 5.52917 26.072C5.48117 26.096 5.44517 26.072 5.42117 26C5.39717 25.952 5.37317 25.88 5.34917 25.784C5.32517 25.688 5.31317 25.604 5.31317 25.532C5.31317 25.436 5.32517 25.364 5.34917 25.316C5.39717 25.172 5.38517 24.884 5.31317 24.452C5.26517 24.212 5.22917 23.936 5.20517 23.624C5.18117 23.288 5.15717 22.988 5.13317 22.724C5.13317 22.436 5.13317 22.196 5.13317 22.004C5.13317 21.812 5.15717 21.716 5.20517 21.716C5.22917 21.692 5.22917 21.632 5.20517 21.536C5.13317 21.488 5.12117 21.296 5.16917 20.96C5.24117 20.696 5.24117 20.528 5.16917 20.456C5.09717 20.408 5.09717 20.348 5.16917 20.276C5.21717 20.132 5.24117 19.88 5.24117 19.52C5.19317 19.088 5.21717 18.872 5.31317 18.872C5.38517 18.872 5.40917 18.824 5.38517 18.728C5.33717 18.632 5.36117 18.536 5.45717 18.44C5.55317 18.344 5.55317 18.32 5.45717 18.368C5.33717 18.416 5.27717 18.368 5.27717 18.224C5.27717 18.056 5.32517 17.924 5.42117 17.828C5.56517 17.756 5.56517 17.72 5.42117 17.72C5.32517 17.72 5.30117 17.66 5.34917 17.54C5.37317 17.492 5.39717 17.432 5.42117 17.36C5.44517 17.264 5.45717 17.192 5.45717 17.144C5.48117 17.048 5.51717 16.916 5.56517 16.748C5.61317 16.58 5.66117 16.412 5.70917 16.244C5.75717 16.076 5.80517 15.932 5.85317 15.812C5.90117 15.668 5.93717 15.572 5.96117 15.524C5.98517 15.428 5.94917 15.344 5.85317 15.272C5.73317 15.2 5.68517 15.116 5.70917 15.02C5.73317 14.924 5.80517 14.924 5.92517 15.02C5.94917 15.068 5.96117 15.044 5.96117 14.948C5.98517 14.852 5.98517 14.684 5.96117 14.444C5.93717 14.012 5.96117 13.676 6.03317 13.436C6.12917 13.34 6.15317 13.124 6.10517 12.788L6.03317 12.536V12.5C6.03317 12.548 5.99717 12.716 5.92517 13.004C5.87717 13.292 5.80517 13.64 5.70917 14.048C5.54117 14.936 5.40917 15.656 5.31317 16.208C5.24117 16.76 5.18117 17.24 5.13317 17.648L4.98917 19.052L4.88117 21.212C4.88117 21.596 4.86917 21.932 4.84517 22.22C4.82117 22.484 4.79717 22.628 4.77317 22.652C4.70117 22.724 4.67717 22.22 4.70117 21.14C4.74917 20.036 4.84517 18.62 4.98917 16.892C5.01317 16.724 5.04917 16.472 5.09717 16.136C5.14517 15.776 5.19317 15.416 5.24117 15.056C5.31317 14.696 5.37317 14.36 5.42117 14.048C5.49317 13.712 5.55317 13.472 5.60117 13.328C5.62517 13.28 5.64917 13.16 5.67317 12.968C5.69717 12.776 5.73317 12.584 5.78117 12.392C5.80517 12.2 5.82917 12.02 5.85317 11.852C5.90117 11.66 5.93717 11.54 5.96117 11.492L6.17717 10.484L6.42917 9.404C6.45317 9.332 6.47717 9.248 6.50117 9.152C6.52517 9.032 6.53717 8.924 6.53717 8.828L6.64517 8.36C6.66917 8.312 6.69317 8.204 6.71717 8.036C6.74117 7.868 6.77717 7.688 6.82517 7.496C6.87317 7.304 6.90917 7.112 6.93317 6.92C6.98117 6.704 7.02917 6.548 7.07717 6.452C7.12517 6.308 7.18517 6.092 7.25717 5.804C7.32917 5.516 7.40117 5.216 7.47317 4.904C7.54517 4.592 7.60517 4.292 7.65317 4.004C7.70117 3.692 7.72517 3.44 7.72517 3.248C7.74917 3.008 7.77317 2.816 7.79717 2.672C7.82117 2.504 7.84517 2.396 7.86917 2.348C7.91717 2.228 7.88117 2 7.76117 1.664C7.66517 1.304 7.65317 1.1 7.72517 1.052C7.79717 0.931999 8.28917 1.268 9.20117 2.06C9.65717 2.444 9.93317 2.792 10.0292 3.104C10.1492 3.392 10.1612 3.872 10.0652 4.544C10.0172 4.856 9.98117 5.108 9.95717 5.3C9.93317 5.468 9.89717 5.636 9.84917 5.804C9.82517 5.972 9.78917 6.176 9.74117 6.416C9.69317 6.632 9.62117 6.932 9.52517 7.316C9.42917 7.676 9.34517 8.012 9.27317 8.324C9.20117 8.612 9.16517 8.78 9.16517 8.828C9.14117 8.876 9.11717 8.984 9.09317 9.152C9.06917 9.296 9.03317 9.428 8.98517 9.548C8.93717 9.692 8.88917 9.884 8.84117 10.124C8.81717 10.34 8.79317 10.544 8.76917 10.736C8.72117 10.904 8.68517 11.06 8.66117 11.204C8.63717 11.348 8.61317 11.432 8.58917 11.456C8.56517 11.48 8.52917 11.6 8.48117 11.816C8.43317 12.008 8.37317 12.26 8.30117 12.572C8.22917 12.884 8.14517 13.244 8.04917 13.652C7.97717 14.036 7.90517 14.432 7.83317 14.84L7.68917 15.596L7.58117 16.136C7.53317 16.256 7.49717 16.412 7.47317 16.604C7.44917 16.796 7.41317 16.988 7.36517 17.18C7.34117 17.372 7.31717 17.564 7.29317 17.756C7.26917 17.924 7.25717 18.032 7.25717 18.08C7.23317 18.128 7.20917 18.284 7.18517 18.548C7.18517 18.812 7.17317 19.1 7.14917 19.412C7.10117 19.748 7.06517 20.06 7.04117 20.348C7.04117 20.636 7.02917 20.828 7.00517 20.924C6.98117 21.02 6.96917 21.296 6.96917 21.752V22.976C6.96917 23.408 6.96917 23.804 6.96917 24.164C6.99317 24.5 7.01717 24.68 7.04117 24.704C7.06517 24.728 7.11317 24.716 7.18517 24.668C7.28117 24.596 7.37717 24.524 7.47317 24.452C7.59317 24.356 7.68917 24.272 7.76117 24.2C7.85717 24.104 7.90517 24.02 7.90517 23.948C7.90517 23.852 7.95317 23.84 8.04917 23.912C8.12117 23.984 8.22917 23.996 8.37317 23.948C8.54117 23.876 8.68517 23.768 8.80517 23.624C8.92517 23.528 9.02117 23.48 9.09317 23.48C9.14117 23.48 9.24917 23.372 9.41717 23.156C9.60917 22.916 9.90917 22.484 10.3172 21.86L10.5332 21.608L10.6772 21.464C10.7492 21.464 10.7852 21.404 10.7852 21.284C10.7852 21.188 10.8452 21.08 10.9652 20.96C11.0612 20.888 11.1092 20.852 11.1092 20.852C11.1332 20.852 11.1212 20.912 11.0732 21.032L11.0012 21.284L11.2172 21.068C11.3612 20.924 11.4452 20.852 11.4692 20.852C11.5172 20.852 11.5412 20.924 11.5412 21.068C11.5412 21.26 11.5172 21.332 11.4692 21.284C11.3972 21.284 11.3132 21.392 11.2172 21.608C11.0972 21.824 11.0732 21.932 11.1452 21.932V21.968L11.0372 22.184C10.9412 22.424 10.9292 22.556 11.0012 22.58C11.0972 22.652 11.0972 22.76 11.0012 22.904C10.9052 23.048 10.8812 23.144 10.9292 23.192C10.9532 23.216 11.0132 23.144 11.1092 22.976C11.2292 22.784 11.3252 22.676 11.3972 22.652C11.4452 22.652 11.5172 22.592 11.6132 22.472C11.7092 22.352 11.8052 22.208 11.9012 22.04C12.0452 21.776 12.1892 21.572 12.3332 21.428C12.4772 21.26 12.5012 21.284 12.4052 21.5C12.3812 21.596 12.3932 21.644 12.4412 21.644C12.4652 21.644 12.5132 21.608 12.5852 21.536C12.6812 21.44 12.7652 21.344 12.8372 21.248C12.9332 21.128 13.0052 21.02 13.0532 20.924C13.1252 20.804 13.1612 20.72 13.1612 20.672C13.1612 20.576 13.1972 20.54 13.2692 20.564C13.3412 20.66 13.4012 20.576 13.4492 20.312C13.4732 20.096 13.5572 19.988 13.7012 19.988C13.7972 19.988 13.9292 19.868 14.0972 19.628ZM23.3132 2.132C23.3612 2.42 23.3612 2.648 23.3132 2.816C23.2652 2.984 23.1332 3.284 22.9172 3.716C22.7732 3.98 22.6292 4.232 22.4852 4.472C22.3652 4.688 22.2692 4.832 22.1972 4.904C22.0292 5 21.9452 5.108 21.9452 5.228C21.9452 5.276 21.8852 5.372 21.7652 5.516C21.6692 5.636 21.5492 5.768 21.4052 5.912C21.2372 6.08 21.0572 6.272 20.8652 6.488C20.6972 6.68 20.5652 6.848 20.4692 6.992C20.3732 7.136 20.2772 7.268 20.1812 7.388C20.1092 7.484 20.0612 7.532 20.0372 7.532C19.9652 7.532 19.9292 7.604 19.9292 7.748C19.9292 7.844 19.8692 7.952 19.7492 8.072C19.6292 8.168 19.5452 8.192 19.4972 8.144C19.4492 8.096 19.3532 8.156 19.2092 8.324C19.0652 8.468 18.9932 8.588 18.9932 8.684C18.9932 8.804 18.9212 8.768 18.7772 8.576L18.5612 8.324L18.3452 8.576C18.2252 8.768 18.2012 8.876 18.2732 8.9C18.3692 8.9 18.3452 8.972 18.2012 9.116C18.0812 9.236 18.0092 9.272 17.9852 9.224H17.9132C17.9132 9.248 17.9372 9.284 17.9852 9.332C18.0092 9.428 17.9612 9.524 17.8412 9.62C17.7212 9.74 17.6612 9.848 17.6612 9.944C17.6612 10.064 17.6252 10.124 17.5532 10.124C17.4812 10.124 17.4452 10.196 17.4452 10.34C17.4452 10.484 17.3972 10.568 17.3012 10.592C17.2292 10.664 17.2172 10.724 17.2652 10.772C17.3372 10.844 17.3972 10.82 17.4452 10.7C17.4932 10.604 17.5172 10.556 17.5172 10.556C17.5412 10.556 17.5772 10.604 17.6252 10.7C17.6732 10.82 17.6372 10.94 17.5172 11.06C17.3492 11.204 17.3492 11.288 17.5172 11.312C17.6852 11.312 17.6852 11.372 17.5172 11.492C17.3732 11.636 17.3012 11.744 17.3012 11.816C17.3012 11.96 17.1692 12.236 16.9052 12.644L16.7612 12.932L16.6172 13.148L16.5092 13.364C16.5332 13.436 16.4972 13.556 16.4012 13.724C16.3292 13.892 16.2692 13.976 16.2212 13.976C16.1492 13.976 16.1372 14 16.1852 14.048C16.1852 14.072 16.1732 14.132 16.1492 14.228C16.1492 14.3 16.1252 14.384 16.0772 14.48C15.9572 14.672 15.8972 14.804 15.8972 14.876C15.8732 15.02 15.7772 15.212 15.6092 15.452C15.4652 15.668 15.2972 15.884 15.1052 16.1C14.9132 16.316 14.7092 16.508 14.4932 16.676C14.3012 16.844 14.1572 16.94 14.0612 16.964C13.9172 16.964 13.7972 17.012 13.7012 17.108C13.6292 17.204 13.5812 17.204 13.5572 17.108C13.5092 17.036 13.4252 17.036 13.3052 17.108C13.2092 17.18 13.1612 17.18 13.1612 17.108C13.1612 16.988 13.0772 16.952 12.9092 17C12.7412 17.048 12.6092 17.144 12.5132 17.288C12.4652 17.384 12.4052 17.468 12.3332 17.54C12.2612 17.612 12.2012 17.66 12.1532 17.684C12.1052 17.708 12.0332 17.78 11.9372 17.9C11.8652 18.02 11.7932 18.152 11.7212 18.296C11.5052 18.632 11.3492 18.8 11.2532 18.8C11.1572 18.8 11.0612 18.908 10.9652 19.124C10.9172 19.244 10.8332 19.4 10.7132 19.592C10.6172 19.784 10.4972 19.988 10.3532 20.204C10.2332 20.396 10.1132 20.576 9.99317 20.744C9.87317 20.888 9.77717 20.984 9.70517 21.032C9.63317 21.08 9.53717 21.188 9.41717 21.356C9.32117 21.5 9.21317 21.668 9.09317 21.86C8.92517 22.148 8.76917 22.364 8.62517 22.508C8.50517 22.628 8.46917 22.616 8.51717 22.472H8.55317C8.55317 22.4 8.60117 22.316 8.69717 22.22C8.76917 22.148 8.96117 21.86 9.27317 21.356C9.60917 20.828 10.0052 20.18 10.4612 19.412C10.6772 19.052 10.8452 18.776 10.9652 18.584C11.1092 18.368 11.2052 18.212 11.2532 18.116C11.3252 18.02 11.3732 17.96 11.3972 17.936C11.4452 17.912 11.4932 17.888 11.5412 17.864C11.6612 17.864 11.7092 17.792 11.6852 17.648C11.6852 17.528 11.7332 17.468 11.8292 17.468C11.9492 17.492 11.9972 17.336 11.9732 17C11.9732 16.88 12.0332 16.724 12.1532 16.532C12.2972 16.316 12.4292 16.172 12.5492 16.1C12.6692 16.004 12.6932 15.956 12.6212 15.956C12.5732 15.956 12.5732 15.92 12.6212 15.848C12.6692 15.752 12.7292 15.656 12.8012 15.56C12.8732 15.44 12.9452 15.344 13.0172 15.272C13.0892 15.176 13.1372 15.128 13.1612 15.128C13.2332 15.128 13.2692 15.068 13.2692 14.948C13.2692 14.9 13.2692 14.852 13.2692 14.804C13.2932 14.756 13.3532 14.648 13.4492 14.48C13.5692 14.288 13.7492 14 13.9892 13.616C14.2292 13.232 14.5652 12.692 14.9972 11.996C15.3572 11.444 15.6812 10.952 15.9692 10.52C16.2572 10.064 16.4372 9.788 16.5092 9.692C16.6532 9.524 16.7252 9.416 16.7252 9.368C16.7252 9.248 16.9292 8.912 17.3372 8.36C17.5052 8.096 17.6372 7.868 17.7332 7.676C17.8532 7.484 17.9012 7.388 17.8772 7.388C17.8772 7.364 17.8292 7.412 17.7332 7.532C17.6372 7.652 17.5292 7.808 17.4092 8L16.9772 8.54C16.9772 8.468 17.0252 8.36 17.1212 8.216C17.2172 8.048 17.3252 7.88 17.4452 7.712C17.5652 7.544 17.6732 7.4 17.7692 7.28C17.8892 7.16 17.9732 7.1 18.0212 7.1C18.1172 7.1 18.1412 7.076 18.0932 7.028C18.0212 6.908 18.8132 5.66 20.4692 3.284C20.6612 3.02 20.8652 2.72 21.0812 2.384C21.2972 2.024 21.4652 1.748 21.5852 1.556C21.7052 1.34 21.8132 1.16 21.9092 1.016C22.0292 0.871999 22.1132 0.799998 22.1612 0.799998C22.3052 0.799998 22.5092 0.919998 22.7732 1.16C22.9652 1.328 23.0852 1.472 23.1332 1.592C23.2052 1.688 23.2652 1.868 23.3132 2.132ZM15.1412 11.492C14.8532 11.924 14.6132 12.284 14.4212 12.572C14.2292 12.836 14.2052 12.824 14.3492 12.536L15.2852 11.06C15.4772 10.724 15.6812 10.388 15.8972 10.052C16.1132 9.716 16.2812 9.476 16.4012 9.332C16.4972 9.164 16.5812 9.032 16.6532 8.936C16.7252 8.84 16.7732 8.804 16.7972 8.828C16.8212 8.852 16.7732 8.948 16.6532 9.116C16.5572 9.284 16.4252 9.488 16.2572 9.728C16.0892 9.992 15.8972 10.292 15.6812 10.628C15.4652 10.94 15.2852 11.228 15.1412 11.492ZM6.06917 19.556C6.21317 19.508 6.20117 19.484 6.03317 19.484C5.91317 19.484 5.88917 19.376 5.96117 19.16C6.00917 18.968 5.99717 18.872 5.92517 18.872C5.82917 18.872 5.76917 18.956 5.74517 19.124C5.72117 19.268 5.69717 19.616 5.67317 20.168C5.67317 20.696 5.67317 20.948 5.67317 20.924C5.69717 20.876 5.76917 20.528 5.88917 19.88C5.91317 19.712 5.97317 19.604 6.06917 19.556ZM5.52917 21.932C5.50517 22.508 5.49317 22.88 5.49317 23.048C5.51717 23.192 5.55317 23.24 5.60117 23.192C5.62517 23.168 5.63717 23.072 5.63717 22.904C5.66117 22.736 5.68517 22.544 5.70917 22.328C5.70917 22.088 5.70917 21.884 5.70917 21.716C5.73317 21.524 5.76917 21.416 5.81717 21.392C5.84117 21.296 5.80517 21.248 5.70917 21.248C5.63717 21.248 5.58917 21.296 5.56517 21.392C5.54117 21.488 5.52917 21.668 5.52917 21.932ZM5.13317 24.956C5.08517 24.956 5.03717 24.86 4.98917 24.668C4.94117 24.524 4.90517 24.344 4.88117 24.128C4.85717 23.912 4.83317 23.708 4.80917 23.516C4.80917 23.324 4.80917 23.156 4.80917 23.012C4.80917 22.868 4.82117 22.796 4.84517 22.796C4.86917 22.796 4.89317 22.856 4.91717 22.976C4.94117 23.072 4.95317 23.18 4.95317 23.3C4.95317 23.444 4.95317 23.624 4.95317 23.84C4.97717 24.032 5.01317 24.2 5.06117 24.344C5.13317 24.728 5.15717 24.932 5.13317 24.956ZM14.7812 14.84C14.8772 14.864 14.9252 14.852 14.9252 14.804C14.9252 14.732 14.8652 14.696 14.7452 14.696C14.5052 14.696 14.4812 14.672 14.6732 14.624C14.7692 14.6 14.8172 14.564 14.8172 14.516C14.8172 14.444 14.7812 14.408 14.7092 14.408C14.6132 14.408 14.5292 14.528 14.4572 14.768C14.3612 15.008 14.2652 15.128 14.1692 15.128C14.0732 15.128 14.0372 15.176 14.0612 15.272C14.1092 15.392 14.1812 15.416 14.2772 15.344C14.3972 15.272 14.4812 15.152 14.5292 14.984C14.5532 14.84 14.6372 14.792 14.7812 14.84ZM13.0892 18.764C13.2332 18.812 13.3052 18.788 13.3052 18.692C13.3052 18.62 13.3772 18.548 13.5212 18.476C13.6172 18.428 13.6652 18.428 13.6652 18.476C13.6652 18.5 13.6052 18.632 13.4852 18.872C13.3652 19.112 13.2572 19.268 13.1612 19.34C13.0652 19.412 13.0172 19.388 13.0172 19.268C13.0172 19.196 13.0652 19.148 13.1612 19.124C13.2332 19.052 13.1972 18.98 13.0532 18.908C12.9572 18.836 12.9092 18.8 12.9092 18.8C12.9092 18.776 12.9692 18.764 13.0892 18.764ZM13.7732 15.74C13.9412 15.74 14.0252 15.728 14.0252 15.704C14.0492 15.68 14.0372 15.644 13.9892 15.596C13.8692 15.428 13.8332 15.284 13.8812 15.164C13.9052 14.996 13.8932 14.876 13.8452 14.804C13.7732 14.708 13.7372 14.732 13.7372 14.876C13.7372 15.356 13.6772 15.62 13.5572 15.668C13.5092 15.716 13.5812 15.74 13.7732 15.74ZM6.14117 18.188C6.18917 18.164 6.20117 18.104 6.17717 18.008C6.03317 17.84 5.92517 17.948 5.85317 18.332V18.656C5.85317 18.728 5.87717 18.764 5.92517 18.764C5.97317 18.764 5.99717 18.68 5.99717 18.512C5.99717 18.32 6.04517 18.212 6.14117 18.188ZM14.9972 14.444C14.9732 14.348 15.0092 14.3 15.1052 14.3C15.2252 14.3 15.2852 14.264 15.2852 14.192C15.2852 14.12 15.2492 14.096 15.1772 14.12C15.1292 14.168 15.0812 14.144 15.0332 14.048C15.0332 13.976 14.9972 13.988 14.9252 14.084C14.8772 14.18 14.8652 14.288 14.8892 14.408C14.9132 14.528 14.9612 14.588 15.0332 14.588C15.0332 14.588 15.0212 14.54 14.9972 14.444ZM12.2612 22.184C12.3812 21.968 12.4172 21.836 12.3692 21.788C12.3452 21.764 12.3332 21.788 12.3332 21.86C12.3332 21.932 12.2852 21.956 12.1892 21.932C12.1172 21.908 12.0812 21.992 12.0812 22.184V22.544L12.2612 22.184ZM6.14117 17C6.21317 17 6.24917 16.892 6.24917 16.676C6.24917 16.436 6.22517 16.34 6.17717 16.388C6.10517 16.436 6.06917 16.556 6.06917 16.748C6.06917 16.916 6.09317 17 6.14117 17ZM6.35717 15.74C6.42917 15.668 6.46517 15.548 6.46517 15.38C6.46517 15.26 6.42917 15.248 6.35717 15.344C6.28517 15.416 6.24917 15.536 6.24917 15.704C6.24917 15.872 6.28517 15.884 6.35717 15.74ZM14.1692 18.692C14.0732 18.86 14.0012 18.944 13.9532 18.944C13.8812 18.944 13.8932 18.86 13.9892 18.692C14.0852 18.524 14.1692 18.44 14.2412 18.44C14.2652 18.44 14.2412 18.524 14.1692 18.692ZM5.81717 23.732C5.91317 23.636 5.91317 23.612 5.81717 23.66C5.69717 23.708 5.62517 23.696 5.60117 23.624C5.57717 23.6 5.56517 23.684 5.56517 23.876C5.56517 23.996 5.56517 24.08 5.56517 24.128C5.58917 24.152 5.60117 24.14 5.60117 24.092L5.67317 23.912L5.81717 23.732ZM16.8692 10.772C16.8932 10.628 16.8812 10.556 16.8332 10.556C16.7612 10.556 16.7132 10.628 16.6892 10.772C16.6412 10.892 16.6532 10.952 16.7252 10.952C16.7732 10.952 16.8212 10.892 16.8692 10.772ZM6.10517 17.108C6.03317 17.108 5.99717 17.168 5.99717 17.288C5.99717 17.432 6.02117 17.504 6.06917 17.504C6.06917 17.48 6.08117 17.456 6.10517 17.432L6.17717 17.288C6.22517 17.168 6.20117 17.108 6.10517 17.108ZM8.26517 23.012C8.43317 22.7 8.51717 22.616 8.51717 22.76C8.51717 22.808 8.45717 22.916 8.33717 23.084C8.24117 23.18 8.19317 23.228 8.19317 23.228C8.19317 23.204 8.21717 23.132 8.26517 23.012ZM14.7092 15.2C14.8052 15.056 14.8292 14.996 14.7812 15.02C14.7332 15.044 14.6492 15.128 14.5292 15.272C14.4812 15.368 14.4452 15.44 14.4212 15.488C14.4212 15.512 14.4332 15.512 14.4572 15.488C14.5532 15.464 14.6372 15.368 14.7092 15.2ZM17.0852 9.404C17.1332 9.284 17.1572 9.224 17.1572 9.224C17.1572 9.2 17.1092 9.248 17.0132 9.368C16.8932 9.488 16.8332 9.584 16.8332 9.656C16.8332 9.8 16.9172 9.716 17.0852 9.404ZM17.6612 10.34C17.7572 10.34 17.8052 10.376 17.8052 10.448C17.8052 10.52 17.7572 10.556 17.6612 10.556C17.5892 10.556 17.5532 10.52 17.5532 10.448C17.5532 10.376 17.5892 10.34 17.6612 10.34ZM14.6012 16.064C14.6252 15.92 14.6372 15.848 14.6372 15.848C14.6132 15.848 14.5532 15.92 14.4572 16.064C14.3852 16.184 14.3852 16.244 14.4572 16.244C14.5052 16.244 14.5532 16.184 14.6012 16.064ZM12.5492 19.016V18.908C12.5492 18.812 12.5852 18.764 12.6572 18.764C12.7292 18.764 12.7532 18.812 12.7292 18.908C12.7052 19.004 12.6572 19.052 12.5852 19.052L12.5492 19.016ZM17.5172 8.756C17.6372 8.636 17.6852 8.552 17.6612 8.504C17.6372 8.48 17.5652 8.54 17.4452 8.684C17.3732 8.804 17.3372 8.876 17.3372 8.9C17.3372 8.9 17.3972 8.852 17.5172 8.756ZM14.1692 14.3C14.0972 14.372 14.1332 14.408 14.2772 14.408C14.3972 14.408 14.4572 14.384 14.4572 14.336C14.4572 14.288 14.4212 14.264 14.3492 14.264C14.2772 14.24 14.2172 14.252 14.1692 14.3ZM12.4412 20.312C12.4412 20.24 12.4772 20.204 12.5492 20.204C12.6212 20.204 12.6572 20.24 12.6572 20.312C12.6572 20.384 12.6212 20.42 12.5492 20.42C12.4772 20.42 12.4412 20.384 12.4412 20.312ZM12.5492 21.032C12.6212 21.032 12.6572 21.068 12.6572 21.14C12.6572 21.212 12.6212 21.248 12.5492 21.248C12.4772 21.248 12.4412 21.212 12.4412 21.14C12.4412 21.068 12.4772 21.032 12.5492 21.032ZM12.3332 20.528C12.4052 20.528 12.4412 20.564 12.4412 20.636C12.4412 20.684 12.4052 20.708 12.3332 20.708C12.2372 20.708 12.1892 20.684 12.1892 20.636C12.1892 20.564 12.2372 20.528 12.3332 20.528ZM15.3572 13.832C15.3572 13.76 15.3092 13.724 15.2132 13.724C15.0932 13.772 15.0812 13.82 15.1772 13.868C15.2252 13.916 15.2732 13.94 15.3212 13.94L15.3572 13.976V13.832ZM15.2492 16.676C15.2732 16.604 15.3092 16.568 15.3572 16.568C15.4052 16.568 15.4292 16.604 15.4292 16.676C15.4292 16.748 15.3812 16.784 15.2852 16.784C15.1892 16.784 15.1772 16.748 15.2492 16.676ZM5.96117 17.72C5.88917 17.792 5.90117 17.828 5.99717 17.828C6.09317 17.828 6.14117 17.792 6.14117 17.72C6.14117 17.648 6.11717 17.612 6.06917 17.612C6.02117 17.612 5.98517 17.648 5.96117 17.72ZM15.3572 14.804C15.4292 14.732 15.4052 14.696 15.2852 14.696C15.2132 14.696 15.1772 14.732 15.1772 14.804V14.876L15.2132 14.912C15.2612 14.912 15.3092 14.876 15.3572 14.804ZM14.2412 15.884C14.3612 15.764 14.3852 15.704 14.3132 15.704C14.2652 15.656 14.2172 15.692 14.1692 15.812C14.1212 15.908 14.0972 15.968 14.0972 15.992C14.1212 15.992 14.1692 15.956 14.2412 15.884ZM18.5612 8.612C18.4412 8.804 18.3812 8.828 18.3812 8.684C18.3812 8.66 18.4172 8.612 18.4892 8.54C18.5612 8.516 18.5852 8.54 18.5612 8.612ZM6.24917 16.244C6.32117 16.244 6.35717 16.22 6.35717 16.172C6.35717 16.1 6.34517 16.064 6.32117 16.064C6.24917 16.064 6.20117 16.1 6.17717 16.172C6.12917 16.22 6.15317 16.244 6.24917 16.244ZM12.8012 20.636C12.8012 20.564 12.8372 20.504 12.9092 20.456C12.9812 20.384 12.9932 20.42 12.9452 20.564C12.8492 20.78 12.8012 20.804 12.8012 20.636ZM13.6292 19.52C13.5572 19.568 13.5332 19.544 13.5572 19.448C13.6292 19.352 13.6892 19.304 13.7372 19.304C13.7612 19.352 13.7252 19.424 13.6292 19.52ZM13.1612 14.624C13.0412 14.744 13.0172 14.72 13.0892 14.552C13.1372 14.432 13.1852 14.396 13.2332 14.444C13.2572 14.492 13.2332 14.552 13.1612 14.624ZM16.6172 9.944C16.6172 9.992 16.6292 10.016 16.6532 10.016L16.7972 9.944C16.8212 9.872 16.7972 9.836 16.7252 9.836C16.6532 9.836 16.6172 9.872 16.6172 9.944ZM11.7932 17.288C11.7452 17.288 11.7212 17.24 11.7212 17.144C11.7212 16.952 11.7452 16.928 11.7932 17.072C11.8172 17.192 11.8172 17.264 11.7932 17.288ZM5.60117 16.136C5.55317 16.184 5.52917 16.136 5.52917 15.992C5.55317 15.92 5.57717 15.896 5.60117 15.92C5.62517 16.04 5.62517 16.112 5.60117 16.136ZM5.60117 24.74C5.64917 24.692 5.64917 24.632 5.60117 24.56C5.57717 24.536 5.55317 24.548 5.52917 24.596C5.52917 24.74 5.55317 24.788 5.60117 24.74ZM17.3827 23.408C17.3107 23.384 17.2747 23.408 17.2747 23.48C17.2747 23.552 17.3107 23.588 17.3827 23.588C17.4787 23.588 17.5147 23.648 17.4907 23.768C17.4907 23.864 17.4427 23.936 17.3467 23.984C17.2267 24.056 17.2627 24.152 17.4547 24.272C17.6467 24.392 17.7547 24.704 17.7787 25.208C17.8027 25.424 17.8267 25.628 17.8507 25.82C17.8987 25.988 17.9467 26.096 17.9947 26.144C18.1147 26.264 18.3307 26.324 18.6427 26.324C19.5787 26.324 20.8387 25.856 22.4227 24.92C23.2627 24.44 23.9227 24.068 24.4027 23.804C24.8827 23.54 25.0627 23.456 24.9427 23.552C24.8947 23.6 24.7267 23.72 24.4387 23.912C24.1507 24.08 23.8267 24.272 23.4667 24.488C23.1067 24.704 22.7587 24.908 22.4227 25.1C22.1107 25.292 21.8827 25.424 21.7387 25.496L21.3427 25.712L21.7747 25.64L22.4947 25.496C22.6627 25.448 22.9507 25.304 23.3587 25.064C23.7907 24.8 24.3067 24.452 24.9067 24.02C25.3147 23.684 25.5547 23.516 25.6267 23.516C25.7227 23.492 25.6387 23.612 25.3747 23.876C25.2787 23.972 25.1947 24.068 25.1227 24.164C25.0507 24.236 25.0147 24.296 25.0147 24.344C25.0147 24.368 24.9427 24.452 24.7987 24.596L24.2947 25.1C23.2627 26.06 22.7467 26.636 22.7467 26.828C22.7467 26.996 22.6027 27.2 22.3147 27.44C22.0507 27.68 21.7987 27.824 21.5587 27.872C21.4147 27.92 21.2347 27.956 21.0187 27.98C20.8027 28.028 20.5867 28.052 20.3707 28.052C20.1787 28.076 19.9987 28.088 19.8307 28.088C19.6867 28.112 19.6027 28.112 19.5787 28.088C19.5307 28.04 19.3627 28.004 19.0747 27.98C18.9787 27.98 18.8107 27.908 18.5707 27.764C18.3547 27.62 18.1267 27.452 17.8867 27.26C17.6467 27.092 17.4307 26.924 17.2387 26.756C17.0707 26.588 16.9867 26.468 16.9867 26.396C16.9867 26.348 16.9507 26.24 16.8787 26.072C16.8067 25.904 16.7227 25.7 16.6267 25.46C16.5547 25.292 16.4947 25.148 16.4467 25.028C16.3987 24.884 16.3627 24.728 16.3387 24.56C16.3147 24.392 16.3027 24.2 16.3027 23.984C16.3027 23.744 16.3147 23.432 16.3387 23.048C16.3627 22.568 16.3987 22.136 16.4467 21.752C16.5187 21.368 16.6147 20.984 16.7347 20.6C16.8547 20.216 17.0227 19.808 17.2387 19.376C17.4547 18.92 17.7307 18.404 18.0667 17.828C18.5467 17.012 18.9907 16.388 19.3987 15.956C19.8067 15.5 20.2267 15.236 20.6587 15.164C21.0907 15.092 21.5707 15.2 22.0987 15.488C22.6267 15.752 23.2507 16.184 23.9707 16.784C24.1627 16.952 24.2827 17.108 24.3307 17.252C24.4027 17.372 24.4627 17.6 24.5107 17.936C24.5587 18.44 24.5347 18.86 24.4387 19.196C24.3667 19.532 24.1747 19.904 23.8627 20.312C23.7187 20.504 23.5147 20.744 23.2507 21.032C23.0107 21.296 22.7587 21.548 22.4947 21.788C22.2547 22.028 22.0267 22.232 21.8107 22.4C21.6187 22.568 21.5107 22.64 21.4867 22.616C21.4627 22.568 21.3907 22.556 21.2707 22.58C21.1507 22.58 21.0187 22.592 20.8747 22.616C20.7067 22.664 20.5027 22.688 20.2627 22.688C20.0227 22.664 19.7827 22.628 19.5427 22.58C19.3267 22.508 19.1107 22.436 18.8947 22.364C18.7027 22.268 18.5707 22.184 18.4987 22.112C18.3307 21.92 18.1987 21.872 18.1027 21.968C18.0067 22.04 17.9587 22.22 17.9587 22.508C17.9587 22.82 17.9107 22.964 17.8147 22.94C17.7187 22.868 17.6587 22.952 17.6347 23.192C17.5387 23.36 17.4547 23.432 17.3827 23.408ZM18.3187 20.888C18.2707 21.08 18.3187 21.164 18.4627 21.14C18.6067 21.116 18.9067 20.984 19.3627 20.744C19.6507 20.6 19.9387 20.396 20.2267 20.132C20.5387 19.868 20.8147 19.592 21.0547 19.304C21.2947 18.992 21.4867 18.692 21.6307 18.404C21.7747 18.092 21.8467 17.816 21.8467 17.576C21.8467 17.288 21.6307 17.264 21.1987 17.504C21.0067 17.624 20.8867 17.66 20.8387 17.612C20.7907 17.564 20.6707 17.648 20.4787 17.864C20.2867 18.056 20.1067 18.272 19.9387 18.512L19.2187 19.628L18.8227 20.132L18.6067 20.384C18.5347 20.456 18.5227 20.504 18.5707 20.528C18.6427 20.6 18.6307 20.636 18.5347 20.636C18.4147 20.636 18.3427 20.72 18.3187 20.888ZM16.7707 23.516C16.8187 22.94 16.9267 22.316 17.0947 21.644C17.2627 20.972 17.4427 20.468 17.6347 20.132C17.7307 19.916 17.7667 19.76 17.7427 19.664C17.6947 19.568 17.5627 19.712 17.3467 20.096C17.1307 20.48 16.9267 20.924 16.7347 21.428C16.6627 21.62 16.6027 21.884 16.5547 22.22C16.5067 22.556 16.4707 22.892 16.4467 23.228C16.4227 23.54 16.4107 23.828 16.4107 24.092C16.4347 24.356 16.4707 24.524 16.5187 24.596C16.5907 24.716 16.6387 24.728 16.6627 24.632C16.6867 24.512 16.7227 24.14 16.7707 23.516ZM18.0667 19.232C17.9947 19.16 17.9107 19.16 17.8147 19.232C17.7187 19.304 17.6947 19.376 17.7427 19.448C17.8147 19.52 17.8987 19.52 17.9947 19.448C18.0907 19.352 18.1147 19.28 18.0667 19.232ZM21.8107 26.36C21.7387 26.384 21.8107 26.396 22.0267 26.396C22.3147 26.396 22.4227 26.384 22.3507 26.36C22.1587 26.336 21.9787 26.336 21.8107 26.36ZM17.2747 24.524C17.2747 24.668 17.2987 24.716 17.3467 24.668C17.3707 24.644 17.3707 24.572 17.3467 24.452C17.2987 24.26 17.2747 24.284 17.2747 24.524ZM29.5055 20.636C29.5295 20.636 29.6615 20.516 29.9015 20.276C30.1415 20.012 30.4175 19.712 30.7295 19.376C31.0655 19.04 31.4135 18.692 31.7735 18.332C32.1575 17.972 32.4935 17.684 32.7815 17.468C33.3575 17.036 33.8255 16.676 34.1855 16.388C34.5695 16.1 34.8215 15.956 34.9415 15.956C35.0615 15.956 35.2055 15.908 35.3735 15.812L35.6615 15.668L36.3455 15.416C36.5375 15.44 36.6335 15.428 36.6335 15.38C36.6575 15.308 36.6815 15.332 36.7055 15.452C36.7295 15.572 36.6695 15.716 36.5255 15.884C36.4055 16.028 36.3215 16.076 36.2735 16.028C36.2495 16.004 36.2015 16.004 36.1295 16.028C36.0575 16.028 35.9735 16.028 35.8775 16.028C35.8055 16.052 35.6855 16.064 35.5175 16.064L35.3375 16.172C35.2415 16.268 35.1095 16.34 34.9415 16.388C34.7975 16.436 34.6535 16.472 34.5095 16.496C34.3895 16.52 34.3295 16.556 34.3295 16.604C34.3055 16.652 34.2455 16.676 34.1495 16.676C34.0535 16.652 33.9455 16.712 33.8255 16.856C33.7775 16.904 33.7535 16.94 33.7535 16.964C33.7535 16.964 33.7415 16.976 33.7175 17L33.6815 17.036L33.6095 17.108C33.5855 17.132 33.5495 17.156 33.5015 17.18C33.4775 17.18 33.4415 17.204 33.3935 17.252C33.1775 17.42 33.0455 17.504 32.9975 17.504C32.9495 17.504 32.8775 17.564 32.7815 17.684C32.6615 17.804 32.5895 17.864 32.5655 17.864C32.5415 17.864 32.4935 17.924 32.4215 18.044C32.3255 18.14 32.2055 18.236 32.0615 18.332C31.9175 18.428 31.8335 18.5 31.8095 18.548C31.8095 18.596 31.7495 18.704 31.6295 18.872C31.5815 18.92 31.5695 18.92 31.5935 18.872C31.6415 18.824 31.6655 18.788 31.6655 18.764C31.6895 18.74 31.6775 18.752 31.6295 18.8C31.5815 18.848 31.4735 18.98 31.3055 19.196C31.1375 19.412 30.9935 19.568 30.8735 19.664C30.7775 19.76 30.6935 19.832 30.6215 19.88C30.5735 19.928 30.5255 19.964 30.4775 19.988C30.4295 20.012 30.3935 20.048 30.3695 20.096C30.2735 20.216 30.2135 20.324 30.1895 20.42C30.1655 20.492 30.0695 20.612 29.9015 20.78C29.7575 20.924 29.6855 20.96 29.6855 20.888V20.708L29.5055 20.636ZM37.8935 14.588C37.5815 14.54 37.3655 14.564 37.2455 14.66C37.0775 14.732 36.9935 14.732 36.9935 14.66C36.9935 14.564 36.9575 14.552 36.8855 14.624C36.8135 14.672 36.8015 14.72 36.8495 14.768C36.8735 14.84 36.8375 14.876 36.7415 14.876C36.6455 14.876 36.5375 14.924 36.4175 15.02C36.3215 15.116 36.1415 15.224 35.8775 15.344C35.6375 15.464 35.4575 15.524 35.3375 15.524C35.2175 15.524 35.1455 15.476 35.1215 15.38C35.0735 15.332 35.0135 15.32 34.9415 15.344C34.8695 15.344 34.7135 15.404 34.4735 15.524L34.0055 15.776L33.7175 15.92C33.5735 16.016 33.4775 16.1 33.4295 16.172C33.3815 16.22 33.2855 16.292 33.1415 16.388C32.9975 16.484 32.8535 16.592 32.7095 16.712C32.3735 16.976 32.0855 17.228 31.8455 17.468C31.6055 17.708 31.5455 17.828 31.6655 17.828C31.7135 17.828 31.7255 17.864 31.7015 17.936C31.6775 18.008 31.6295 18.008 31.5575 17.936C31.5095 17.84 31.3655 17.912 31.1255 18.152C30.9335 18.344 30.8255 18.488 30.8015 18.584C30.7775 18.68 30.8375 18.668 30.9815 18.548L31.1255 18.476L31.0175 18.62C30.9455 18.716 30.8735 18.812 30.8015 18.908C30.7295 18.98 30.6455 19.064 30.5495 19.16C30.4535 19.256 30.3455 19.388 30.2255 19.556C30.1295 19.724 30.0455 19.868 29.9735 19.988C29.8775 20.156 29.7815 20.3 29.6855 20.42C29.6135 20.516 29.5535 20.588 29.5055 20.636C29.4095 20.732 29.3975 20.804 29.4695 20.852C29.5415 20.852 29.5295 20.972 29.4335 21.212C29.3135 21.428 29.2775 21.536 29.3255 21.536C29.3735 21.512 29.4575 21.38 29.5775 21.14C29.8175 20.756 29.8535 20.612 29.6855 20.708C29.6135 20.732 29.6015 20.708 29.6495 20.636C29.6735 20.54 29.7455 20.516 29.8655 20.564C29.9855 20.612 30.0455 20.588 30.0455 20.492C30.0455 20.372 30.0935 20.312 30.1895 20.312C30.3095 20.312 30.3695 20.24 30.3695 20.096C30.3695 19.976 30.4535 19.868 30.6215 19.772C30.7655 19.748 30.8975 19.628 31.0175 19.412C31.0895 19.316 31.1855 19.196 31.3055 19.052C31.4495 18.908 31.5815 18.776 31.7015 18.656C31.8455 18.512 31.9655 18.404 32.0615 18.332C32.1575 18.236 32.2175 18.2 32.2415 18.224C32.2895 18.272 32.3135 18.248 32.3135 18.152C32.3135 18.08 32.3495 18.044 32.4215 18.044C32.4455 18.044 32.5775 17.972 32.8175 17.828C33.0575 17.66 33.3335 17.48 33.6455 17.288C34.1735 16.928 34.4855 16.724 34.5815 16.676C34.7015 16.604 34.7855 16.628 34.8335 16.748C34.8815 16.988 34.9055 17.024 34.9055 16.856C34.9055 16.76 34.9535 16.712 35.0495 16.712C35.1215 16.712 35.2175 16.664 35.3375 16.568C35.4095 16.448 35.5295 16.388 35.6975 16.388C35.7455 16.388 35.7935 16.388 35.8415 16.388C35.9135 16.364 35.9735 16.352 36.0215 16.352C36.0455 16.328 36.0815 16.316 36.1295 16.316H36.2735C36.3215 16.268 36.3095 16.232 36.2375 16.208C36.1175 16.136 36.1295 16.076 36.2735 16.028C36.3695 16.004 36.4415 16.016 36.4895 16.064C36.5135 16.112 36.5855 16.136 36.7055 16.136C36.8255 16.112 36.9695 16.076 37.1375 16.028C37.2815 15.98 37.4135 15.944 37.5335 15.92C37.6535 15.896 37.7255 15.896 37.7495 15.92L37.6055 15.992L37.2815 16.1C36.9695 16.22 36.8255 16.292 36.8495 16.316C36.8975 16.364 36.8495 16.388 36.7055 16.388C36.6575 16.364 36.5855 16.376 36.4895 16.424C36.3935 16.472 36.3095 16.52 36.2375 16.568C36.0935 16.712 35.9735 16.784 35.8775 16.784C35.8295 16.736 35.8055 16.772 35.8055 16.892C35.8055 16.988 35.7575 17.036 35.6615 17.036C35.6135 17.036 35.5175 17.108 35.3735 17.252C35.3255 17.3 35.2055 17.408 35.0135 17.576C34.8215 17.72 34.6175 17.876 34.4015 18.044C33.9455 18.38 33.4895 18.776 33.0335 19.232C32.6015 19.664 32.2295 20.084 31.9175 20.492L31.4495 21.068L30.3695 22.688C29.8655 23.48 29.4215 24.212 29.0375 24.884C28.6775 25.532 28.4975 25.916 28.4975 26.036C28.4975 26.156 28.4135 26.372 28.2455 26.684C28.1735 26.804 28.1015 26.936 28.0295 27.08C27.9815 27.224 27.9575 27.332 27.9575 27.404C27.9575 27.548 27.9215 27.632 27.8495 27.656C27.7295 27.704 27.7415 27.788 27.8855 27.908C28.0295 28.1 28.0415 28.136 27.9215 28.016C27.8975 27.992 27.7295 28.064 27.4175 28.232C27.1535 28.448 26.9735 28.568 26.8775 28.592C26.8055 28.616 26.6495 28.568 26.4095 28.448C26.1455 28.256 26.0135 28.136 26.0135 28.088C26.0135 28.04 25.9415 27.956 25.7975 27.836C25.6535 27.764 25.5815 27.692 25.5815 27.62C25.5815 27.548 25.5095 27.44 25.3655 27.296C25.2215 27.152 25.1135 26.924 25.0415 26.612C24.9455 26.3 24.9335 26.072 25.0055 25.928C25.0535 25.88 25.0895 25.784 25.1135 25.64C25.1375 25.472 25.1615 25.328 25.1855 25.208C25.1855 25.064 25.2095 24.92 25.2575 24.776C25.3055 24.608 25.3535 24.464 25.4015 24.344C25.4975 24.104 25.5335 23.912 25.5095 23.768C25.4855 23.672 25.4855 23.624 25.5095 23.624C25.5095 23.624 25.5215 23.648 25.5455 23.696C25.6175 23.792 25.6775 23.708 25.7255 23.444C25.7975 23.18 25.8095 23.024 25.7615 22.976C25.7375 22.952 25.7375 22.892 25.7615 22.796L25.9055 22.4L26.1575 21.752C26.2055 21.704 26.2295 21.596 26.2295 21.428C26.2295 21.404 26.2535 21.32 26.3015 21.176L26.4455 20.816L26.5895 20.528C26.6135 20.504 26.6255 20.468 26.6255 20.42C26.6015 20.42 26.6135 20.324 26.6615 20.132C26.7335 19.916 26.8295 19.664 26.9495 19.376C27.0695 19.064 27.1775 18.764 27.2735 18.476C27.3695 18.164 27.4415 17.948 27.4895 17.828L27.6335 17.396C27.6815 17.228 27.7175 17.132 27.7415 17.108C27.8615 16.82 27.9575 16.556 28.0295 16.316C28.1015 16.076 28.1255 15.932 28.1015 15.884C28.0775 15.836 28.0895 15.728 28.1375 15.56C28.1855 15.392 28.2335 15.212 28.2815 15.02C28.3295 14.828 28.3775 14.648 28.4255 14.48C28.4735 14.288 28.4975 14.168 28.4975 14.12C28.4975 14.072 28.5095 13.964 28.5335 13.796C28.5815 13.628 28.6295 13.448 28.6775 13.256C28.7495 13.04 28.8095 12.86 28.8575 12.716C28.9055 12.548 28.9415 12.452 28.9655 12.428C29.0135 12.38 29.1575 12.404 29.3975 12.5C29.6615 12.596 29.8775 12.704 30.0455 12.824C30.2135 12.92 30.3215 12.968 30.3695 12.968C30.3935 12.968 30.4295 12.992 30.4775 13.04C30.5495 13.088 30.6455 13.136 30.7655 13.184C31.1015 13.376 31.2455 13.748 31.1975 14.3C31.1495 14.828 30.9095 15.668 30.4775 16.82C30.2855 17.3 30.1775 17.612 30.1535 17.756C30.1295 17.876 30.1535 17.924 30.2255 17.9C30.5135 17.852 30.6095 17.9 30.5135 18.044C30.4655 18.14 30.6095 18.044 30.9455 17.756C31.3055 17.468 31.7255 17.108 32.2055 16.676L32.4575 16.496C32.6015 16.4 32.7095 16.34 32.7815 16.316C32.9735 16.148 33.1055 16.004 33.1775 15.884C33.2735 15.716 33.5975 15.5 34.1495 15.236C34.3895 15.14 34.6055 15.056 34.7975 14.984C34.9895 14.888 35.1095 14.816 35.1575 14.768C35.2055 14.744 35.2775 14.72 35.3735 14.696C35.4695 14.672 35.5775 14.648 35.6975 14.624C35.9135 14.552 35.9735 14.48 35.8775 14.408C35.7575 14.336 35.7935 14.336 35.9855 14.408C36.1535 14.456 36.2855 14.432 36.3815 14.336C36.4055 14.312 36.5255 14.288 36.7415 14.264C36.9815 14.24 37.2215 14.228 37.4615 14.228C37.7255 14.204 37.9655 14.204 38.1815 14.228C38.4215 14.228 38.5655 14.24 38.6135 14.264C38.7335 14.36 38.7095 14.456 38.5415 14.552C38.3735 14.624 38.1575 14.636 37.8935 14.588ZM37.3175 15.668C37.0295 15.836 36.9455 15.848 37.0655 15.704L37.1375 15.596H37.1735C37.2695 15.596 37.3415 15.572 37.3895 15.524C37.4855 15.428 37.5575 15.404 37.6055 15.452L37.5335 15.524C37.4615 15.596 37.3895 15.644 37.3175 15.668ZM33.2855 16.532C33.5255 16.292 33.6935 16.172 33.7895 16.172L33.8255 16.208C33.8015 16.232 33.7415 16.28 33.6455 16.352C33.5735 16.4 33.4775 16.46 33.3575 16.532L32.9255 16.856L33.2855 16.532ZM29.0015 21.716C29.0975 21.716 29.1455 21.656 29.1455 21.536C29.1455 21.44 29.0975 21.428 29.0015 21.5L28.8575 21.608C28.8335 21.632 28.8215 21.656 28.8215 21.68C28.8215 21.704 28.8815 21.716 29.0015 21.716ZM32.0975 17.468L32.2415 17.288C32.4335 17.048 32.5295 17 32.5295 17.144C32.5295 17.216 32.4455 17.288 32.2775 17.36L32.0975 17.468ZM34.6535 15.74C34.5335 15.74 34.4975 15.704 34.5455 15.632C34.5695 15.584 34.6295 15.572 34.7255 15.596C34.8935 15.692 34.8695 15.74 34.6535 15.74ZM34.9415 16.496C34.9415 16.424 34.9775 16.388 35.0495 16.388C35.1215 16.388 35.1575 16.424 35.1575 16.496C35.1575 16.568 35.1215 16.604 35.0495 16.604C34.9775 16.604 34.9415 16.568 34.9415 16.496ZM37.1735 15.2C37.1255 15.2 37.0895 15.164 37.0655 15.092C36.9935 15.02 37.0295 14.984 37.1735 14.984C37.2695 14.984 37.3055 15.02 37.2815 15.092L37.1735 15.2ZM36.7415 15.704C36.7655 15.68 36.8015 15.68 36.8495 15.704L36.8135 15.74C36.7895 15.788 36.7415 15.824 36.6695 15.848C36.5975 15.872 36.5615 15.86 36.5615 15.812C36.5615 15.788 36.6215 15.752 36.7415 15.704ZM34.2575 15.956C34.3295 15.884 34.3895 15.86 34.4375 15.884C34.4615 15.908 34.4135 15.956 34.2935 16.028C34.1735 16.076 34.1615 16.052 34.2575 15.956ZM47.1502 26.828C46.9582 26.924 46.8022 26.972 46.6822 26.972C46.5862 26.996 46.4422 26.972 46.2502 26.9C45.9382 26.828 45.6862 26.732 45.4942 26.612C45.3262 26.516 45.1462 26.372 44.9542 26.18C44.8822 26.108 44.8102 26.048 44.7382 26C44.6662 25.928 44.6182 25.892 44.5942 25.892C44.5462 25.892 44.4742 25.82 44.3782 25.676C44.2822 25.532 44.1742 25.364 44.0542 25.172C43.9582 24.956 43.8622 24.74 43.7662 24.524C43.6942 24.308 43.6462 24.116 43.6222 23.948C43.5742 23.588 43.5262 23.348 43.4782 23.228C43.4542 23.108 43.4182 23.048 43.3702 23.048C43.3462 23.048 43.2502 23.144 43.0822 23.336C42.9382 23.528 42.7702 23.756 42.5782 24.02C42.2902 24.404 42.0022 24.776 41.7142 25.136C41.4262 25.496 41.1502 25.808 40.8862 26.072C40.6462 26.336 40.4422 26.552 40.2742 26.72C40.1062 26.888 39.9862 26.972 39.9142 26.972C39.8182 26.972 39.7702 27.008 39.7702 27.08C39.7702 27.128 39.7102 27.176 39.5902 27.224C39.4942 27.296 39.3622 27.356 39.1942 27.404C39.0502 27.476 38.8942 27.524 38.7262 27.548C38.5582 27.596 38.4022 27.62 38.2582 27.62C37.9702 27.62 37.6942 27.572 37.4302 27.476C37.1902 27.38 37.0702 27.284 37.0702 27.188C37.0702 27.116 37.0102 27.08 36.8902 27.08C36.7942 27.08 36.6862 26.948 36.5662 26.684L36.3142 26.108C36.0502 25.628 35.9542 25.016 36.0262 24.272C36.0502 24.08 36.0742 23.9 36.0982 23.732C36.1222 23.564 36.1582 23.456 36.2062 23.408C36.2062 23.408 36.2302 23.336 36.2782 23.192L36.3502 22.832C36.3742 22.688 36.4102 22.532 36.4582 22.364C36.5062 22.172 36.5782 21.932 36.6742 21.644C36.7702 21.356 36.8902 20.996 37.0342 20.564C37.2022 20.132 37.4062 19.604 37.6462 18.98C37.8382 18.452 37.9942 17.996 38.1142 17.612C38.2342 17.204 38.3062 16.892 38.3302 16.676C38.3542 16.22 38.4142 15.992 38.5102 15.992C38.6542 15.992 38.9062 16.196 39.2662 16.604C39.5542 16.892 39.7222 17.096 39.7702 17.216C39.8422 17.312 39.8782 17.492 39.8782 17.756C39.8542 17.924 39.8302 18.092 39.8062 18.26C39.8062 18.428 39.7822 18.56 39.7342 18.656C39.6382 18.92 39.5782 19.196 39.5542 19.484C39.5302 19.748 39.5422 19.88 39.5902 19.88C39.6382 19.88 39.6622 19.844 39.6622 19.772C39.6622 19.676 39.6862 19.652 39.7342 19.7C39.7342 19.724 39.6982 19.832 39.6262 20.024C39.5782 20.216 39.5062 20.456 39.4102 20.744C39.3142 21.008 39.2062 21.308 39.0862 21.644C38.9662 21.956 38.8462 22.244 38.7262 22.508L38.2582 23.804L37.9702 24.632C37.9222 24.752 37.9702 24.776 38.1142 24.704C38.2582 24.608 38.4382 24.452 38.6542 24.236C38.8702 24.02 39.1102 23.78 39.3742 23.516C39.6382 23.228 39.8782 22.94 40.0942 22.652C40.3582 22.316 40.5022 22.196 40.5262 22.292C40.5502 22.34 40.6222 22.292 40.7422 22.148C40.8862 21.98 41.0422 21.788 41.2102 21.572C41.3782 21.332 41.5942 21.056 41.8582 20.744C42.1222 20.432 42.3502 20.168 42.5422 19.952C42.7342 19.76 42.8902 19.58 43.0102 19.412C43.1542 19.22 43.2262 19.1 43.2262 19.052C43.1782 18.98 43.1782 18.944 43.2262 18.944C43.2742 18.944 43.3462 18.896 43.4422 18.8C43.5382 18.68 43.6342 18.548 43.7302 18.404C43.8502 18.26 43.9582 18.116 44.0542 17.972C44.1502 17.804 44.2222 17.672 44.2702 17.576C44.3902 17.36 44.4262 17.192 44.3782 17.072C44.3782 17 44.4022 16.964 44.4502 16.964C44.4982 16.94 44.6302 16.952 44.8462 17C45.1342 17.072 45.3382 17.18 45.4582 17.324C45.4822 17.372 45.5302 17.432 45.6022 17.504C45.6982 17.576 45.7822 17.636 45.8542 17.684C46.0702 17.804 46.1782 17.912 46.1782 18.008C46.1782 18.152 46.2142 18.188 46.2862 18.116C46.4542 17.996 46.4422 18.104 46.2502 18.44C46.1062 18.608 46.0582 18.752 46.1062 18.872C46.1302 18.968 46.1182 19.016 46.0702 19.016C46.0222 18.992 45.9622 19.064 45.8902 19.232C45.8182 19.376 45.6862 19.688 45.4942 20.168L45.3142 20.564C45.2422 20.684 45.2062 20.804 45.2062 20.924C45.2062 21.044 45.1702 21.104 45.0982 21.104C45.0262 21.176 44.9902 21.26 44.9902 21.356C44.9662 21.476 44.9182 21.572 44.8462 21.644C44.8222 21.668 44.7982 21.788 44.7742 22.004C44.7502 22.22 44.7262 22.46 44.7022 22.724C44.6542 23.42 44.6782 23.708 44.7742 23.588C44.8462 23.492 44.8942 23.588 44.9182 23.876V24.452C44.9182 24.524 44.9422 24.56 44.9902 24.56C45.0382 24.56 45.0502 24.632 45.0262 24.776C45.0022 24.896 45.0022 24.968 45.0262 24.992C45.0742 24.992 45.1702 24.992 45.3142 24.992C45.4102 24.992 45.5782 24.956 45.8182 24.884C46.0822 24.788 46.3582 24.68 46.6462 24.56C46.9342 24.416 47.2102 24.272 47.4742 24.128C47.7382 23.984 47.9302 23.852 48.0502 23.732L48.4102 23.444C48.5062 23.348 48.6022 23.276 48.6982 23.228C48.8422 23.132 49.0582 22.964 49.3462 22.724C49.6342 22.46 49.8742 22.232 50.0662 22.04L50.1382 22.4C49.9222 22.352 49.8742 22.412 49.9942 22.58C50.1382 22.724 50.1382 22.772 49.9942 22.724C49.9222 22.7 49.7422 22.796 49.4542 23.012C49.3342 23.132 49.1782 23.264 48.9862 23.408C48.7942 23.552 48.5902 23.696 48.3742 23.84C48.1582 23.984 47.9542 24.116 47.7622 24.236C47.5702 24.356 47.4142 24.44 47.2942 24.488C47.0782 24.584 47.0662 24.644 47.2582 24.668C47.4502 24.692 47.7142 24.596 48.0502 24.38C48.4102 24.164 48.7942 23.864 49.2022 23.48C49.5382 23.168 49.7542 22.976 49.8502 22.904C49.9702 22.808 50.0062 22.808 49.9582 22.904C49.9582 22.928 49.9222 23.024 49.8502 23.192C49.7782 23.36 49.6822 23.552 49.5622 23.768C49.4662 23.984 49.3582 24.212 49.2382 24.452C49.1422 24.668 49.0582 24.848 48.9862 24.992C48.8662 25.256 48.7102 25.484 48.5182 25.676C48.3502 25.844 48.2662 25.976 48.2662 26.072C48.2662 26.168 48.2302 26.216 48.1582 26.216C48.0862 26.216 47.9902 26.276 47.8702 26.396C47.6782 26.588 47.4382 26.732 47.1502 26.828ZM41.2102 22.796C41.2582 22.724 41.2462 22.712 41.1742 22.76C41.1022 22.784 41.0062 22.856 40.8862 22.976C40.7662 23.096 40.6342 23.216 40.4902 23.336C40.3702 23.456 40.2622 23.54 40.1662 23.588C40.0222 23.66 39.9262 23.756 39.8782 23.876C39.8302 23.972 39.8662 24.02 39.9862 24.02C40.0342 24.02 40.1182 23.972 40.2382 23.876C40.3582 23.78 40.4902 23.66 40.6342 23.516C40.9942 23.156 41.1862 22.916 41.2102 22.796ZM39.0502 21.068C38.9782 21.308 38.9662 21.392 39.0142 21.32C39.0862 21.248 39.1702 21.08 39.2662 20.816C39.3142 20.696 39.3502 20.588 39.3742 20.492C39.3982 20.396 39.3862 20.348 39.3382 20.348C39.2662 20.348 39.2182 20.42 39.1942 20.564L39.0502 21.068ZM43.1902 23.012C43.3342 22.844 43.3822 22.712 43.3342 22.616C43.3342 22.592 43.2982 22.604 43.2262 22.652C43.1782 22.7 43.1182 22.784 43.0462 22.904L42.9022 23.156C42.8542 23.228 42.8662 23.264 42.9382 23.264C43.0102 23.264 43.0942 23.18 43.1902 23.012ZM42.2542 21.392C42.1342 21.512 42.0742 21.608 42.0742 21.68V21.752L42.3982 21.32L42.2542 21.392ZM1.77505 38.952L2.24305 37.188C2.31505 36.972 2.38705 36.72 2.45905 36.432C2.55505 36.12 2.63905 35.82 2.71105 35.532C2.78305 35.244 2.84305 34.992 2.89105 34.776C2.96305 34.536 3.01105 34.38 3.03505 34.308C3.03505 34.284 3.05905 34.176 3.10705 33.984L3.21505 33.624L3.35905 33.084C3.40705 32.892 3.44305 32.724 3.46705 32.58C3.49105 32.412 3.50305 32.292 3.50305 32.22C3.50305 32.1 3.52705 32.028 3.57505 32.004C3.62305 31.956 3.75505 31.932 3.97105 31.932C4.59505 31.932 4.93105 32.208 4.97905 32.76C5.02705 33.072 5.05105 33.444 5.05105 33.876C5.05105 34.308 5.02705 34.656 4.97905 34.92C4.93105 35.208 4.85905 35.556 4.76305 35.964C4.66705 36.372 4.59505 36.612 4.54705 36.684C4.54705 36.732 4.48705 37.056 4.36705 37.656C4.31905 37.992 4.28305 38.244 4.25905 38.412C4.23505 38.58 4.21105 38.724 4.18705 38.844C4.16305 38.94 4.12705 39.036 4.07905 39.132C4.05505 39.228 4.00705 39.36 3.93505 39.528L3.71905 40.14L3.97105 39.924C4.09105 39.804 4.13905 39.78 4.11505 39.852C4.09105 39.948 4.10305 39.996 4.15105 39.996C4.19905 39.996 4.29505 39.912 4.43905 39.744C4.60705 39.552 4.70305 39.42 4.72705 39.348C4.72705 39.276 4.81105 39.144 4.97905 38.952C5.14705 38.76 5.20705 38.604 5.15905 38.484C5.11105 38.364 5.15905 38.292 5.30305 38.268C5.37505 38.244 5.48305 38.148 5.62705 37.98C5.79505 37.812 5.97505 37.608 6.16705 37.368C6.35905 37.128 6.53905 36.9 6.70705 36.684C6.87505 36.468 6.98305 36.324 7.03105 36.252C7.12705 36.156 7.17505 36.036 7.17505 35.892C7.12705 35.748 7.13905 35.712 7.21105 35.784C7.23505 35.808 7.33105 35.724 7.49905 35.532C7.66705 35.34 7.85905 35.112 8.07505 34.848C8.55505 34.248 9.03505 33.66 9.51505 33.084C10.019 32.508 10.403 32.1 10.667 31.86C10.811 31.716 10.919 31.572 10.991 31.428C11.063 31.26 11.051 31.176 10.955 31.176C10.883 31.176 10.715 31.308 10.451 31.572L9.98305 31.968L10.487 31.428C10.919 30.9 11.183 30.744 11.279 30.96C11.351 31.032 11.447 31.068 11.567 31.068C11.711 31.068 11.843 31.116 11.963 31.212C12.011 31.284 12.035 31.356 12.035 31.428C12.035 31.5 11.987 31.632 11.891 31.824C11.723 32.112 11.615 32.256 11.567 32.256C11.495 32.256 11.411 32.4 11.315 32.688C11.219 32.976 11.111 33.096 10.991 33.048C10.919 33 10.871 33.06 10.847 33.228C10.799 33.372 10.703 33.444 10.559 33.444C10.439 33.444 10.379 33.42 10.379 33.372C10.379 33.324 10.475 33.204 10.667 33.012C10.859 32.82 11.063 32.592 11.279 32.328C11.495 32.04 11.615 31.872 11.639 31.824C11.687 31.728 11.651 31.692 11.531 31.716C11.411 31.74 11.315 31.788 11.243 31.86C11.171 31.98 11.147 32.04 11.171 32.04C11.195 32.04 11.135 32.112 10.991 32.256C10.871 32.4 10.703 32.568 10.487 32.76C10.319 32.928 10.139 33.132 9.94705 33.372C9.75505 33.588 9.57505 33.804 9.40705 34.02C9.23905 34.236 9.09505 34.428 8.97505 34.596C8.87905 34.764 8.83105 34.884 8.83105 34.956C8.83105 35.052 8.71105 35.22 8.47105 35.46C8.20705 35.724 8.07505 35.892 8.07505 35.964C8.07505 36.036 8.11105 36.084 8.18305 36.108C8.25505 36.132 8.31505 36.108 8.36305 36.036C8.38705 36.012 8.38705 36 8.36305 36C8.36305 35.976 8.35105 35.976 8.32705 36C8.23105 36.048 8.18305 36.048 8.18305 36C8.18305 35.952 8.23105 35.892 8.32705 35.82C8.42305 35.7 8.54305 35.628 8.68705 35.604C8.85505 35.58 8.95105 35.604 8.97505 35.676C9.02305 35.82 9.04705 35.784 9.04705 35.568C9.09505 35.16 9.19105 34.992 9.33505 35.064C9.45505 35.112 9.50305 35.16 9.47905 35.208C9.47905 35.256 9.39505 35.376 9.22705 35.568C8.98705 35.808 8.85505 35.988 8.83105 36.108L8.75905 36.288L8.86705 36.18C9.05905 36.036 9.14305 36.012 9.11905 36.108C9.09505 36.204 8.98705 36.348 8.79505 36.54C8.53105 36.804 8.39905 36.972 8.39905 37.044C8.39905 37.092 8.35105 37.104 8.25505 37.08C8.13505 37.032 8.07505 37.116 8.07505 37.332C8.07505 37.548 7.90705 37.896 7.57105 38.376C7.16305 38.952 6.87505 39.384 6.70705 39.672C6.53905 39.936 6.45505 40.128 6.45505 40.248C6.45505 40.32 6.49105 40.452 6.56305 40.644C6.63505 40.812 6.71905 40.992 6.81505 41.184C6.93505 41.376 7.04305 41.568 7.13905 41.76C7.23505 41.952 7.30705 42.084 7.35505 42.156L7.46305 42.372L7.57105 42.552C7.64305 42.624 7.71505 42.732 7.78705 42.876C7.85905 42.972 7.94305 43.032 8.03905 43.056C8.15905 43.08 8.35105 43.08 8.61505 43.056C9.26305 43.056 10.139 42.72 11.243 42.048L11.603 41.796L11.171 42.228L10.739 42.624L11.243 42.372C11.555 42.18 11.747 42.048 11.819 41.976C11.867 41.928 11.891 41.94 11.891 42.012C11.891 42.108 11.831 42.18 11.711 42.228C11.615 42.252 11.567 42.324 11.567 42.444C11.567 42.54 11.531 42.588 11.459 42.588C11.387 42.588 11.351 42.636 11.351 42.732C11.351 42.876 11.267 42.996 11.099 43.092C11.027 43.14 10.943 43.224 10.847 43.344C10.751 43.44 10.679 43.536 10.631 43.632C10.487 43.872 10.331 44.04 10.163 44.136C9.99505 44.208 9.75505 44.22 9.44305 44.172C8.89105 44.124 8.47105 44.04 8.18305 43.92C7.89505 43.8 7.61905 43.608 7.35505 43.344C6.75505 42.768 6.32305 42.204 6.05905 41.652L5.84305 41.148L5.66305 41.436C5.54305 41.628 5.48305 41.76 5.48305 41.832C5.48305 41.904 5.44705 41.94 5.37505 41.94C5.27905 41.94 5.18305 42.06 5.08705 42.3C4.72705 42.852 4.43905 43.296 4.22305 43.632C4.03105 43.968 3.86305 44.256 3.71905 44.496C3.59905 44.712 3.51505 44.904 3.46705 45.072C3.41905 45.24 3.38305 45.408 3.35905 45.576C3.28705 45.84 3.19105 45.996 3.07105 46.044C2.92705 46.092 2.77105 46.308 2.60305 46.692C2.55505 46.788 2.51905 46.86 2.49505 46.908C2.47105 46.98 2.43505 47.04 2.38705 47.088L2.27905 47.268C2.23105 47.268 2.19505 47.256 2.17105 47.232L1.95505 47.16C1.78705 47.112 1.60705 47.004 1.41505 46.836C1.24705 46.668 1.13905 46.512 1.09105 46.368C1.04305 46.248 0.983047 46.188 0.911047 46.188C0.839047 46.188 0.803047 46.104 0.803047 45.936C0.803047 45.768 0.767047 45.648 0.695047 45.576C0.575047 45.504 0.575047 45.036 0.695047 44.172C0.719047 43.812 0.731047 43.524 0.731047 43.308C0.755047 43.068 0.779047 42.852 0.803047 42.66C0.851047 42.444 0.899047 42.228 0.947047 42.012C1.01905 41.772 1.11505 41.448 1.23505 41.04L1.77505 38.952ZM8.61505 36.432C8.54305 36.504 8.50705 36.564 8.50705 36.612C8.50705 36.708 8.54305 36.72 8.61505 36.648C8.68705 36.624 8.72305 36.576 8.72305 36.504C8.72305 36.432 8.68705 36.408 8.61505 36.432ZM7.93105 36.288C7.85905 36.36 7.87105 36.396 7.96705 36.396C8.03905 36.396 8.07505 36.36 8.07505 36.288C8.07505 36.216 8.06305 36.18 8.03905 36.18C7.99105 36.18 7.95505 36.216 7.93105 36.288ZM26.594 38.736C26.69 38.64 26.738 38.652 26.738 38.772C26.738 38.916 26.594 39.132 26.306 39.42L25.982 39.744C25.886 39.84 25.838 39.912 25.838 39.96C25.79 40.032 25.67 40.068 25.478 40.068C25.286 40.068 25.082 40.2 24.866 40.464C24.602 40.728 24.434 40.848 24.362 40.824C24.242 40.8 24.086 40.836 23.894 40.932C23.726 41.028 23.57 41.16 23.426 41.328C23.042 41.784 23.138 41.784 23.714 41.328C23.906 41.136 24.062 41.028 24.182 41.004C24.302 40.956 24.278 41.016 24.11 41.184C23.966 41.328 23.918 41.424 23.966 41.472C23.99 41.496 24.074 41.472 24.218 41.4C24.362 41.304 24.518 41.196 24.686 41.076C24.854 40.956 25.01 40.836 25.154 40.716C25.322 40.596 25.418 40.512 25.442 40.464C25.466 40.368 25.538 40.32 25.658 40.32C25.778 40.32 25.802 40.392 25.73 40.536C25.658 40.68 25.526 40.824 25.334 40.968C25.094 41.136 24.974 41.292 24.974 41.436C24.974 41.58 24.95 41.652 24.902 41.652C24.782 41.604 24.686 41.604 24.614 41.652C24.566 41.676 24.566 41.724 24.614 41.796C24.638 41.82 24.578 41.928 24.434 42.12C24.314 42.312 24.17 42.528 24.002 42.768C23.858 42.984 23.702 43.188 23.534 43.38C23.39 43.548 23.294 43.632 23.246 43.632L23.102 43.74L22.814 44.028C22.526 44.316 22.166 44.58 21.734 44.82C21.326 45.036 20.894 45.192 20.438 45.288C20.03 45.384 19.706 45.42 19.466 45.396C19.226 45.372 18.95 45.276 18.638 45.108C18.494 45.036 18.302 44.868 18.062 44.604C17.822 44.316 17.702 44.124 17.702 44.028C17.702 44.004 17.642 43.896 17.522 43.704C17.378 43.56 17.306 43.404 17.306 43.236C17.306 43.116 17.246 42.912 17.126 42.624C17.078 42.504 17.042 42.384 17.018 42.264C16.994 42.144 16.982 42.06 16.982 42.012C16.982 41.82 16.934 41.76 16.838 41.832C16.766 41.88 16.682 42.024 16.586 42.264C16.538 42.384 16.406 42.612 16.19 42.948C15.974 43.284 15.734 43.656 15.47 44.064C15.206 44.448 14.978 44.784 14.786 45.072C14.594 45.384 14.498 45.564 14.498 45.612C14.498 45.684 14.402 45.792 14.21 45.936C14.042 46.104 13.85 46.26 13.634 46.404C13.418 46.548 13.214 46.668 13.022 46.764C12.83 46.86 12.722 46.884 12.698 46.836C12.674 46.74 12.554 46.716 12.338 46.764C12.17 46.788 11.978 46.716 11.762 46.548C11.57 46.404 11.402 46.224 11.258 46.008C11.21 45.96 11.162 45.9 11.114 45.828C11.09 45.756 11.054 45.684 11.006 45.612C10.958 45.444 10.922 45.24 10.898 45C10.898 44.736 10.898 44.484 10.898 44.244C10.898 43.98 10.898 43.74 10.898 43.524C10.922 43.308 10.946 43.164 10.97 43.092C11.09 42.828 11.126 42.612 11.078 42.444C11.078 42.396 11.078 42.324 11.078 42.228C11.102 42.108 11.138 42.012 11.186 41.94C11.258 41.748 11.306 41.52 11.33 41.256C11.378 40.992 11.378 40.884 11.33 40.932C11.21 41.052 11.078 41.4 10.934 41.976C10.79 42.552 10.694 43.152 10.646 43.776L10.574 44.676V44.28C10.55 44.448 10.55 44.604 10.574 44.748C10.526 44.604 10.502 44.46 10.502 44.316V43.632C10.502 43.032 10.55 42.492 10.646 42.012C10.742 41.508 10.958 40.836 11.294 39.996C11.366 39.924 11.402 39.84 11.402 39.744L11.438 39.636H11.546C11.666 39.684 11.726 39.672 11.726 39.6C11.726 39.528 11.69 39.492 11.618 39.492C11.57 39.492 11.57 39.408 11.618 39.24C11.69 39.048 11.786 38.856 11.906 38.664L12.086 38.448L11.978 38.664C11.93 38.904 11.906 39.072 11.906 39.168L11.798 39.708C11.726 39.852 11.654 39.888 11.582 39.816C11.558 39.768 11.534 39.756 11.51 39.78C11.51 39.804 11.522 39.84 11.546 39.888C11.594 40.08 11.558 40.272 11.438 40.464C11.318 40.68 11.294 40.788 11.366 40.788C11.438 40.788 11.51 40.74 11.582 40.644C11.678 40.548 11.726 40.464 11.726 40.392C11.726 40.344 11.774 40.2 11.87 39.96C11.966 39.696 12.074 39.408 12.194 39.096C12.338 38.784 12.482 38.484 12.626 38.196C12.77 37.884 12.89 37.644 12.986 37.476L13.418 36.72L13.598 36.396L13.31 36.72C13.118 36.96 13.034 37.032 13.058 36.936C13.082 36.816 13.202 36.6 13.418 36.288C13.538 36.144 13.646 35.988 13.742 35.82C13.862 35.652 13.946 35.532 13.994 35.46C14.066 35.316 14.138 35.208 14.21 35.136C14.234 35.112 14.282 35.052 14.354 34.956C14.45 34.86 14.546 34.74 14.642 34.596L14.678 34.56L15.038 34.272C15.398 34.032 15.698 33.924 15.938 33.948C16.178 33.972 16.466 34.128 16.802 34.416C17.426 34.968 17.798 35.424 17.918 35.784C18.062 36.12 17.906 36.24 17.45 36.144C17.186 36.096 16.91 36.132 16.622 36.252C16.358 36.348 16.142 36.504 15.974 36.72C15.95 36.768 15.878 36.852 15.758 36.972L15.578 37.152C15.53 37.2 15.446 37.308 15.326 37.476C15.23 37.644 15.122 37.824 15.002 38.016C14.906 38.208 14.798 38.388 14.678 38.556C14.582 38.724 14.51 38.844 14.462 38.916C14.294 39.132 14.078 39.492 13.814 39.996C13.574 40.5 13.334 41.016 13.094 41.544C12.854 42.048 12.65 42.504 12.482 42.912C12.338 43.32 12.29 43.548 12.338 43.596C12.362 43.644 12.53 43.5 12.842 43.164C13.154 42.804 13.514 42.36 13.922 41.832C14.354 41.304 14.798 40.74 15.254 40.14C15.71 39.54 16.106 39.012 16.442 38.556C16.706 38.148 16.958 37.764 17.198 37.404C17.438 37.044 17.594 36.816 17.666 36.72C17.786 36.576 17.882 36.48 17.954 36.432C18.026 36.384 18.134 36.36 18.278 36.36C18.422 36.408 18.518 36.396 18.566 36.324C18.614 36.252 18.686 36.012 18.782 35.604C18.902 35.172 18.998 34.908 19.07 34.812C19.166 34.716 19.286 34.764 19.43 34.956C19.574 35.1 19.706 35.172 19.826 35.172C19.898 35.172 19.994 35.232 20.114 35.352C20.258 35.472 20.39 35.616 20.51 35.784C20.63 35.928 20.726 36.072 20.798 36.216C20.87 36.36 20.894 36.444 20.87 36.468C20.798 36.516 20.714 36.696 20.618 37.008C20.546 37.296 20.498 37.584 20.474 37.872C20.45 38.016 20.354 38.316 20.186 38.772C20.042 39.228 19.874 39.696 19.682 40.176C19.49 40.68 19.322 41.136 19.178 41.544C19.034 41.952 18.938 42.204 18.89 42.3C18.842 42.444 18.83 42.54 18.854 42.588C18.902 42.612 19.022 42.6 19.214 42.552C19.43 42.504 19.754 42.372 20.186 42.156C20.642 41.94 21.062 41.7 21.446 41.436C21.566 41.34 21.662 41.292 21.734 41.292C21.806 41.268 21.818 41.28 21.77 41.328L21.698 41.472L21.662 41.508C21.686 41.508 21.782 41.472 21.95 41.4C22.118 41.328 22.31 41.244 22.526 41.148C22.742 41.028 22.958 40.908 23.174 40.788C23.414 40.668 23.606 40.56 23.75 40.464C23.942 40.344 24.11 40.26 24.254 40.212C24.398 40.14 24.47 40.116 24.47 40.14L24.758 39.96C24.902 39.888 25.07 39.792 25.262 39.672C25.454 39.528 25.646 39.396 25.838 39.276C26.03 39.156 26.186 39.048 26.306 38.952C26.45 38.856 26.546 38.784 26.594 38.736ZM17.306 38.844C17.738 38.268 17.882 38.04 17.738 38.16C17.618 38.256 17.306 38.616 16.802 39.24C16.538 39.552 16.262 39.876 15.974 40.212C15.686 40.548 15.446 40.812 15.254 41.004C14.822 41.436 14.474 41.808 14.21 42.12C13.97 42.432 13.874 42.624 13.922 42.696C13.97 42.816 14.018 42.864 14.066 42.84C14.114 42.816 14.222 42.72 14.39 42.552C14.486 42.456 14.606 42.324 14.75 42.156C14.918 41.988 15.086 41.808 15.254 41.616L15.614 41.184L15.794 41.004C15.842 41.004 15.938 40.896 16.082 40.68C16.226 40.464 16.298 40.332 16.298 40.284C16.226 40.236 16.286 40.188 16.478 40.14C16.622 39.996 16.706 39.876 16.73 39.78C16.754 39.708 16.814 39.588 16.91 39.42C17.03 39.228 17.162 39.036 17.306 38.844ZM12.878 38.664C12.806 38.688 12.818 38.748 12.914 38.844C12.962 38.892 12.986 38.916 12.986 38.916C13.01 38.916 13.01 38.904 12.986 38.88C12.962 38.784 12.974 38.736 13.022 38.736C13.07 38.736 13.166 38.604 13.31 38.34C13.43 38.076 13.514 37.968 13.562 38.016C13.586 38.064 13.586 38.172 13.562 38.34C13.538 38.412 13.514 38.484 13.49 38.556C13.466 38.628 13.442 38.712 13.418 38.808L14.246 37.044C13.958 37.38 13.862 37.428 13.958 37.188C13.982 37.116 13.97 37.104 13.922 37.152C13.826 37.176 13.802 37.26 13.85 37.404C13.85 37.548 13.826 37.668 13.778 37.764C13.73 37.884 13.646 37.884 13.526 37.764C13.43 37.692 13.322 37.752 13.202 37.944C13.082 38.136 13.022 38.304 13.022 38.448C13.022 38.568 12.974 38.64 12.878 38.664ZM12.554 40.68C12.458 40.92 12.386 41.184 12.338 41.472L13.166 39.312C13.07 39.408 12.986 39.576 12.914 39.816C12.866 39.936 12.806 40.08 12.734 40.248C12.686 40.416 12.626 40.56 12.554 40.68ZM12.23 40.212V40.176L12.482 39.816C12.578 39.648 12.65 39.492 12.698 39.348C12.77 39.204 12.806 39.108 12.806 39.06C12.806 38.964 12.77 38.964 12.698 39.06C12.65 39.204 12.638 39.288 12.662 39.312C12.71 39.36 12.698 39.384 12.626 39.384C12.578 39.384 12.53 39.444 12.482 39.564L12.23 40.212ZM11.402 41.724C11.258 42.012 11.258 42.12 11.402 42.048C11.474 42.024 11.51 41.928 11.51 41.76C11.486 41.64 11.474 41.58 11.474 41.58C11.474 41.556 11.45 41.604 11.402 41.724ZM12.122 39.744C12.074 39.864 12.05 39.924 12.05 39.924C12.074 39.924 12.134 39.876 12.23 39.78C12.326 39.66 12.374 39.552 12.374 39.456C12.374 39.36 12.338 39.36 12.266 39.456C12.218 39.528 12.17 39.624 12.122 39.744ZM11.51 43.956C11.582 43.956 11.618 43.884 11.618 43.74C11.618 43.716 11.606 43.692 11.582 43.668C11.582 43.644 11.582 43.62 11.582 43.596V43.524C11.534 43.524 11.498 43.596 11.474 43.74C11.426 43.884 11.438 43.956 11.51 43.956ZM11.618 41.076C11.546 41.124 11.51 41.208 11.51 41.328C11.51 41.448 11.546 41.448 11.618 41.328C11.69 41.256 11.726 41.172 11.726 41.076C11.726 41.052 11.69 41.052 11.618 41.076ZM11.942 41.4C12.014 41.376 12.05 41.316 12.05 41.22C12.05 41.172 12.014 41.16 11.942 41.184C11.87 41.232 11.834 41.292 11.834 41.364C11.834 41.436 11.87 41.448 11.942 41.4ZM11.618 43.2C11.69 43.2 11.726 43.164 11.726 43.092L11.69 43.02V42.984C11.618 42.984 11.57 43.02 11.546 43.092C11.474 43.164 11.498 43.2 11.618 43.2ZM11.474 45.396C11.498 45.3 11.498 45.204 11.474 45.108C11.426 44.964 11.402 45.012 11.402 45.252C11.402 45.492 11.426 45.54 11.474 45.396ZM11.762 42.66C11.786 42.588 11.774 42.552 11.726 42.552C11.654 42.552 11.618 42.588 11.618 42.66V42.732L11.654 42.768L11.762 42.66ZM12.95 36.756C13.022 36.66 13.106 36.516 13.202 36.324C13.202 36.372 13.19 36.408 13.166 36.432C13.094 36.576 13.022 36.684 12.95 36.756ZM13.814 35.532C13.766 35.628 13.706 35.712 13.634 35.784C13.562 35.856 13.502 35.928 13.454 36C13.502 35.904 13.562 35.82 13.634 35.748C13.706 35.676 13.766 35.604 13.814 35.532ZM13.454 36.036V36C13.454 36.024 13.442 36.048 13.418 36.072L13.454 36.036ZM13.31 36.18L13.238 36.324L13.31 36.18ZM48.1585 39.672C48.1105 39.792 48.0625 39.912 48.0145 40.032C47.9905 40.152 47.9545 40.272 47.9065 40.392C47.7145 40.8 47.4865 41.136 47.2225 41.4C47.1025 41.52 46.9825 41.664 46.8625 41.832C46.7665 42 46.6705 42.156 46.5745 42.3L46.2865 42.84C46.3345 42.84 46.4305 42.864 46.5745 42.912C46.7425 43.032 46.7905 43.128 46.7185 43.2C46.5985 43.344 46.4665 43.416 46.3225 43.416C46.1785 43.392 46.1065 43.476 46.1065 43.668L45.8905 43.956L45.6745 44.172C45.6265 44.22 45.5905 44.244 45.5665 44.244C45.4945 44.244 45.3865 44.304 45.2425 44.424C45.0985 44.544 45.0265 44.64 45.0265 44.712L44.9905 44.748C44.9665 44.82 44.8945 44.892 44.7745 44.964C44.6545 45.012 44.5105 45.06 44.3425 45.108C44.1985 45.18 44.0425 45.228 43.8745 45.252C43.7305 45.3 43.5985 45.324 43.4785 45.324C43.0705 45.324 42.6625 45.204 42.2545 44.964C41.8705 44.7 41.5705 44.4 41.3545 44.064L41.4265 43.956C41.2825 43.788 41.1265 43.512 40.9585 43.128C40.7665 42.768 40.6225 42.42 40.5265 42.084C40.4305 41.748 40.3825 41.388 40.3825 41.004C40.3825 40.596 40.4305 40.14 40.5265 39.636C40.6225 39.108 40.7785 38.472 40.9945 37.728C41.0905 37.416 41.1625 37.152 41.2105 36.936C41.2825 36.72 41.3185 36.6 41.3185 36.576C41.3185 36.552 41.1985 36.66 40.9585 36.9C40.7185 37.14 40.5985 37.296 40.5985 37.368C40.5985 37.488 40.5145 37.596 40.3465 37.692C40.2745 37.764 40.2265 37.824 40.2025 37.872C40.1785 37.896 40.1785 37.896 40.2025 37.872C40.2985 37.824 40.3465 37.86 40.3465 37.98C40.3465 38.076 40.3105 38.148 40.2385 38.196C40.1425 38.292 40.0465 38.448 39.9505 38.664C39.9025 38.784 39.8305 38.928 39.7345 39.096C39.6385 39.264 39.5305 39.432 39.4105 39.6C38.9785 40.2 38.6785 40.632 38.5105 40.896C38.3665 41.136 38.2945 41.292 38.2945 41.364C38.2945 41.484 38.1625 41.652 37.8985 41.868C37.6585 42.036 37.5385 42.216 37.5385 42.408C37.5385 42.552 37.4545 42.636 37.2865 42.66C37.2385 42.66 37.1785 42.708 37.1065 42.804C37.0345 42.876 36.9745 42.96 36.9265 43.056C36.8305 43.272 36.6865 43.476 36.4945 43.668C36.3265 43.836 36.2185 43.896 36.1705 43.848C36.1225 43.8 36.0985 43.836 36.0985 43.956C36.0985 44.148 36.0025 44.364 35.8105 44.604C35.6185 44.82 35.3905 44.988 35.1265 45.108C34.8865 45.204 34.7185 45.252 34.6225 45.252C34.5265 45.252 34.3585 45.216 34.1185 45.144C33.7585 45 33.5545 44.856 33.5065 44.712C33.4105 44.544 33.3385 44.46 33.2905 44.46C33.2185 44.46 33.1705 44.352 33.1465 44.136C33.1225 43.896 33.0625 43.8 32.9665 43.848C32.8945 43.896 32.8225 43.788 32.7505 43.524C32.6785 43.236 32.6665 42.96 32.7145 42.696C32.7145 42.576 32.7385 42.384 32.7865 42.12C32.8585 41.856 32.9305 41.604 33.0025 41.364C33.0985 41.028 33.1945 40.668 33.2905 40.284C33.4105 39.876 33.5185 39.504 33.6145 39.168C33.7105 38.808 33.7825 38.496 33.8305 38.232C33.9025 37.968 33.9385 37.812 33.9385 37.764C33.9385 37.62 33.8185 37.656 33.5785 37.872C33.3625 38.088 33.2785 38.148 33.3265 38.052C33.3505 37.98 33.3385 37.944 33.2905 37.944C33.1945 37.944 33.1345 38.028 33.1105 38.196C33.0625 38.388 33.0145 38.484 32.9665 38.484C32.9185 38.484 32.8225 38.544 32.6785 38.664C32.5345 38.784 32.3785 38.928 32.2105 39.096C32.0665 39.264 31.9225 39.432 31.7785 39.6C31.6585 39.744 31.5985 39.852 31.5985 39.924C31.5745 39.996 31.5145 40.104 31.4185 40.248C31.3465 40.368 31.2625 40.488 31.1665 40.608C30.9025 40.872 30.7705 41.028 30.7705 41.076C30.7705 41.124 30.6985 41.268 30.5545 41.508C30.4105 41.748 30.2425 42.036 30.0505 42.372C29.8585 42.708 29.6545 43.068 29.4385 43.452C29.2225 43.812 29.0665 44.1 28.9705 44.316C28.8505 44.532 28.7425 44.724 28.6465 44.892C28.5745 45.036 28.5265 45.108 28.5025 45.108C28.4305 45.108 28.3945 45.144 28.3945 45.216C28.3945 45.336 28.2865 45.516 28.0705 45.756C27.8785 46.02 27.6985 46.188 27.5305 46.26C27.2665 46.38 27.0865 46.44 26.9905 46.44C26.9185 46.464 26.7865 46.428 26.5945 46.332C26.4025 46.188 26.3065 46.08 26.3065 46.008C26.3065 45.888 26.2585 45.816 26.1625 45.792C26.0425 45.744 25.9825 45.636 25.9825 45.468C25.9825 45.3 25.9345 45.228 25.8385 45.252C25.7185 45.3 25.6585 45.24 25.6585 45.072C25.6585 44.88 25.6225 44.784 25.5505 44.784C25.5025 44.784 25.4785 44.688 25.4785 44.496C25.4785 44.304 25.4785 44.088 25.4785 43.848C25.5025 43.584 25.5265 43.32 25.5505 43.056C25.5985 42.792 25.6465 42.576 25.6945 42.408C25.8145 42 25.9225 41.724 26.0185 41.58L26.1625 41.076C26.2105 40.692 26.3185 40.224 26.4865 39.672C26.6545 39.096 26.8105 38.64 26.9545 38.304C27.0505 38.112 27.1345 37.92 27.2065 37.728C27.2785 37.512 27.3265 37.368 27.3505 37.296C27.3985 37.2 27.3985 37.176 27.3505 37.224V37.188C27.3505 37.164 27.3745 37.104 27.4225 37.008C27.4705 36.888 27.5545 36.66 27.6745 36.324C27.7465 36.156 27.8065 35.964 27.8545 35.748C27.9025 35.532 27.9265 35.352 27.9265 35.208C27.9505 34.896 27.9625 34.728 27.9625 34.704C27.9865 34.68 28.0465 34.716 28.1425 34.812C28.1905 34.86 28.2745 34.932 28.3945 35.028C28.5385 35.1 28.6945 35.196 28.8625 35.316C29.0065 35.436 29.1385 35.556 29.2585 35.676C29.3785 35.772 29.4505 35.844 29.4745 35.892C29.4985 35.988 29.5585 36.06 29.6545 36.108C29.7025 36.132 29.7265 36.204 29.7265 36.324C29.7505 36.42 29.7385 36.612 29.6905 36.9C29.6425 37.068 29.6185 37.164 29.6185 37.188C29.6425 37.188 29.6785 37.152 29.7265 37.08C29.7745 37.008 29.8225 36.912 29.8705 36.792C29.9425 36.672 30.0025 36.564 30.0505 36.468C30.0265 36.468 30.0385 36.408 30.0865 36.288C30.1105 36.24 30.1225 36.24 30.1225 36.288C30.1225 36.336 30.0985 36.396 30.0505 36.468C30.0745 36.492 30.0505 36.6 29.9785 36.792C29.9305 36.96 29.8465 37.164 29.7265 37.404C29.5105 37.932 29.3905 38.244 29.3665 38.34C29.3665 38.436 29.4385 38.436 29.5825 38.34C29.7265 38.244 29.7745 38.172 29.7265 38.124C29.7025 38.1 29.7385 38.088 29.8345 38.088C29.9305 38.136 30.0145 38.1 30.0865 37.98C30.1825 37.836 30.2065 37.728 30.1585 37.656H30.1945C30.3145 37.728 30.5065 37.524 30.7705 37.044C30.8665 36.828 30.9625 36.72 31.0585 36.72C31.0825 36.72 31.1665 36.672 31.3105 36.576C31.4545 36.456 31.6105 36.312 31.7785 36.144C31.9705 35.976 32.1265 35.832 32.2465 35.712C32.3905 35.592 32.4865 35.532 32.5345 35.532C32.6065 35.532 32.6425 35.484 32.6425 35.388C32.6425 35.292 32.7265 35.208 32.8945 35.136C33.0625 35.04 33.2425 34.992 33.4345 34.992C33.6265 34.992 33.8065 35.04 33.9745 35.136C34.1425 35.232 34.2505 35.34 34.2985 35.46C34.3225 35.604 34.3945 35.64 34.5145 35.568C34.6345 35.52 34.6945 35.544 34.6945 35.64C34.6945 35.736 34.7545 35.832 34.8745 35.928C35.0185 36.024 35.1505 36.072 35.2705 36.072C35.3905 36.072 35.4505 36.108 35.4505 36.18C35.4265 36.204 35.4745 36.348 35.5945 36.612C35.6665 36.756 35.7145 36.888 35.7385 37.008C35.7625 37.104 35.7505 37.248 35.7025 37.44C35.6785 37.56 35.6545 37.692 35.6305 37.836C35.6305 37.956 35.6305 38.04 35.6305 38.088C35.5345 38.736 35.4625 39.264 35.4145 39.672C35.3665 40.08 35.3185 40.308 35.2705 40.356L35.1625 40.824C35.1145 41.112 35.1505 41.22 35.2705 41.148C35.4145 41.076 35.7025 40.776 36.1345 40.248C36.3265 40.032 36.6265 39.66 37.0345 39.132C37.4665 38.604 37.8985 38.052 38.3305 37.476C38.7865 36.9 39.1945 36.372 39.5545 35.892C39.9145 35.412 40.1305 35.112 40.2025 34.992C40.2505 34.944 40.3465 34.836 40.4905 34.668C40.6345 34.476 40.8025 34.284 40.9945 34.092C41.4265 33.66 41.6185 33.408 41.5705 33.336C41.4985 33.24 41.5345 33.216 41.6785 33.264C41.8465 33.312 42.0265 33.396 42.2185 33.516C42.4825 33.708 42.6025 33.852 42.5785 33.948C42.5305 34.068 42.5425 34.128 42.6145 34.128C42.7105 34.128 42.7585 34.092 42.7585 34.02C42.7585 33.948 42.7945 33.924 42.8665 33.948C42.9145 33.996 42.9265 34.056 42.9025 34.128C42.8785 34.152 42.8905 34.188 42.9385 34.236C42.9865 34.26 43.0465 34.284 43.1185 34.308C43.2625 34.38 43.3345 34.5 43.3345 34.668C43.3345 34.812 43.2745 35.208 43.1545 35.856C43.1065 36.096 43.0705 36.324 43.0465 36.54C43.0225 36.732 43.0105 36.876 43.0105 36.972C43.0105 37.164 42.9745 37.392 42.9025 37.656C42.8545 37.92 42.8065 38.052 42.7585 38.052C42.6865 38.052 42.6505 38.184 42.6505 38.448C42.6265 38.688 42.5665 39 42.4705 39.384C42.3745 39.768 42.2905 40.044 42.2185 40.212C42.0985 40.356 42.0745 40.428 42.1465 40.428C42.1225 40.476 42.1105 40.548 42.1105 40.644L42.0385 41.112C41.9425 41.472 41.9185 41.736 41.9665 41.904C41.9905 41.928 42.0025 42.012 42.0025 42.156V42.624C42.0505 42.624 42.0745 42.684 42.0745 42.804C42.0745 42.9 42.0985 42.996 42.1465 43.092C42.2185 43.188 42.3385 43.248 42.5065 43.272C42.6745 43.296 42.9625 43.224 43.3705 43.056C43.3945 43.008 43.4665 42.948 43.5865 42.876C43.7305 42.804 43.8985 42.708 44.0905 42.588C44.2825 42.492 44.5105 42.36 44.7745 42.192C45.0625 42 45.3025 41.832 45.4945 41.688C45.7105 41.52 45.8665 41.388 45.9625 41.292C46.0825 41.196 46.1905 41.076 46.2865 40.932L48.1585 39.672ZM41.1025 36.288C41.1505 36.288 41.2345 36.156 41.3545 35.892C41.4985 35.628 41.5945 35.388 41.6425 35.172C41.7625 34.644 41.6305 34.668 41.2465 35.244C41.1745 35.388 41.1025 35.508 41.0305 35.604C40.9585 35.676 40.9105 35.7 40.8865 35.676C40.7905 35.652 40.6585 35.748 40.4905 35.964C40.2745 36.18 40.1425 36.288 40.0945 36.288C40.0225 36.288 40.0465 36.228 40.1665 36.108C40.2865 35.988 40.3465 35.88 40.3465 35.784C40.3465 35.736 40.4185 35.652 40.5625 35.532C40.6105 35.484 40.6825 35.412 40.7785 35.316C40.8745 35.196 40.9705 35.076 41.0665 34.956L41.4625 34.452C41.4865 34.428 41.5105 34.392 41.5345 34.344C41.5585 34.272 41.5945 34.212 41.6425 34.164C41.7145 33.996 41.7145 33.912 41.6425 33.912C41.5705 33.912 41.4265 34.032 41.2105 34.272C41.0185 34.488 40.6465 34.968 40.0945 35.712L39.6985 36.144L39.4465 36.396C39.3265 36.468 39.2665 36.552 39.2665 36.648C39.2665 36.768 39.1585 36.948 38.9425 37.188C38.8225 37.284 38.7025 37.404 38.5825 37.548C38.4865 37.692 38.4025 37.824 38.3305 37.944C38.2585 38.064 38.1745 38.184 38.0785 38.304C38.0065 38.4 37.9465 38.472 37.8985 38.52C37.8265 38.592 37.7185 38.712 37.5745 38.88C37.4545 39.048 37.3225 39.216 37.1785 39.384C37.0345 39.576 36.8545 39.792 36.6385 40.032C36.4465 40.272 36.2665 40.476 36.0985 40.644C35.7145 41.028 35.4745 41.292 35.3785 41.436C35.2825 41.556 35.2585 41.616 35.3065 41.616C35.3305 41.616 35.4385 41.544 35.6305 41.4C35.8225 41.232 36.0385 41.028 36.2785 40.788L37.4305 39.636C37.8385 39.132 38.1145 38.784 38.2585 38.592C38.4265 38.376 38.5105 38.244 38.5105 38.196C38.5105 38.124 38.5945 38.004 38.7625 37.836C38.8345 37.788 38.9305 37.692 39.0505 37.548C39.1945 37.38 39.3265 37.224 39.4465 37.08C39.7345 36.72 39.8785 36.552 39.8785 36.576C39.9265 36.6 39.7705 36.864 39.4105 37.368C39.0745 37.872 38.6305 38.484 38.0785 39.204C37.8145 39.54 37.5985 39.84 37.4305 40.104C37.2625 40.344 37.1905 40.476 37.2145 40.5C37.2625 40.548 37.3585 40.536 37.5025 40.464C37.6705 40.392 37.7305 40.32 37.6825 40.248C37.6585 40.152 37.6945 40.104 37.7905 40.104C37.9105 40.104 37.9705 40.08 37.9705 40.032C37.9705 39.96 38.0785 39.864 38.2945 39.744C38.5105 39.648 38.6185 39.54 38.6185 39.42C38.6185 39.324 38.7025 39.228 38.8705 39.132C39.0625 39.084 39.1585 38.988 39.1585 38.844C39.1585 38.748 39.2065 38.7 39.3025 38.7C39.4225 38.7 39.4945 38.652 39.5185 38.556C39.5425 38.508 39.6265 38.388 39.7705 38.196C39.9145 37.98 40.0825 37.74 40.2745 37.476C40.4665 37.212 40.6345 36.984 40.7785 36.792C40.9225 36.6 40.9945 36.48 40.9945 36.432C40.9945 36.336 41.0305 36.288 41.1025 36.288ZM33.9025 35.856C33.9985 35.856 34.0465 35.82 34.0465 35.748C34.0465 35.604 33.8905 35.616 33.5785 35.784C33.2905 35.952 32.9425 36.228 32.5345 36.612C32.4385 36.708 32.3425 36.792 32.2465 36.864C32.1745 36.936 32.1145 36.972 32.0665 36.972C31.9945 36.972 31.9585 36.996 31.9585 37.044C31.9585 37.068 31.8985 37.152 31.7785 37.296C31.6825 37.416 31.5625 37.56 31.4185 37.728C31.2505 37.92 31.1185 38.076 31.0225 38.196C30.9265 38.316 30.8305 38.436 30.7345 38.556C30.6385 38.676 30.5305 38.832 30.4105 39.024C30.3145 39.216 30.1705 39.48 29.9785 39.816C29.6905 40.344 29.5345 40.668 29.5105 40.788C29.5105 40.908 29.6545 40.716 29.9425 40.212C30.1585 39.876 30.3025 39.708 30.3745 39.708C30.4465 39.708 30.5425 39.6 30.6625 39.384C30.7105 39.264 30.8065 39.12 30.9505 38.952C31.1185 38.76 31.2865 38.568 31.4545 38.376C31.8385 37.944 32.0665 37.68 32.1385 37.584C32.2345 37.464 32.2585 37.38 32.2105 37.332V37.296C32.2585 37.296 32.2945 37.308 32.3185 37.332C32.4625 37.38 32.5345 37.368 32.5345 37.296C32.5345 37.152 32.5465 37.068 32.5705 37.044C32.5705 36.948 32.6185 36.9 32.7145 36.9C32.9065 36.876 32.9545 36.828 32.8585 36.756C32.7385 36.684 32.7745 36.588 32.9665 36.468C33.1105 36.324 33.1825 36.312 33.1825 36.432C33.1825 36.48 33.2785 36.408 33.4705 36.216C33.5425 36.12 33.6145 36.036 33.6865 35.964C33.7825 35.892 33.8545 35.856 33.9025 35.856ZM46.2865 41.328L45.9265 41.58C45.6385 41.748 45.5305 41.868 45.6025 41.94C45.6505 41.988 45.6145 42.012 45.4945 42.012C45.4225 42.012 45.2665 42.096 45.0265 42.264C44.8105 42.432 44.6785 42.576 44.6305 42.696C44.6065 42.768 44.6065 42.84 44.6305 42.912C44.6545 42.984 44.6905 43.02 44.7385 43.02C44.8105 43.02 45.0025 42.936 45.3145 42.768C45.6505 42.6 45.8785 42.444 45.9985 42.3C46.1185 42.156 46.1905 41.964 46.2145 41.724L46.2865 41.328ZM41.3905 38.808C41.4865 38.592 41.5345 38.364 41.5345 38.124C41.5345 37.956 41.5705 37.836 41.6425 37.764C41.7145 37.716 41.7385 37.668 41.7145 37.62C41.6905 37.548 41.6425 37.512 41.5705 37.512C41.5225 37.512 41.4745 37.56 41.4265 37.656C41.4025 37.752 41.3785 37.86 41.3545 37.98C41.3305 38.076 41.3185 38.172 41.3185 38.268C41.3185 38.34 41.3305 38.376 41.3545 38.376C41.4265 38.376 41.4025 38.424 41.2825 38.52C41.1625 38.64 41.1265 38.724 41.1745 38.772C41.2225 38.868 41.1985 38.928 41.1025 38.952C41.0305 39 40.9945 39.072 40.9945 39.168C40.9945 39.24 41.0425 39.252 41.1385 39.204C41.1865 39.204 41.2225 39.168 41.2465 39.096C41.2945 39 41.3425 38.904 41.3905 38.808ZM33.7225 41.292C33.7705 41.244 33.8065 41.148 33.8305 41.004C33.8785 40.836 33.8785 40.74 33.8305 40.716C33.7345 40.62 33.6025 41.016 33.4345 41.904C33.4105 42.192 33.3505 42.384 33.2545 42.48C33.1825 42.576 33.1945 42.612 33.2905 42.588C33.3865 42.564 33.4705 42.348 33.5425 41.94C33.5905 41.772 33.6265 41.628 33.6505 41.508C33.6745 41.388 33.6985 41.316 33.7225 41.292ZM34.1905 39.636C34.2865 39.612 34.2865 39.552 34.1905 39.456C34.1425 39.408 34.0945 39.408 34.0465 39.456C34.0225 39.48 33.9865 39.588 33.9385 39.78C33.8905 39.9 33.8545 40.02 33.8305 40.14C33.8065 40.26 33.7825 40.344 33.7585 40.392C33.7345 40.488 33.7465 40.536 33.7945 40.536C33.8905 40.536 33.9385 40.464 33.9385 40.32C33.9385 40.2 33.9745 40.104 34.0465 40.032C34.1185 39.984 34.1425 39.912 34.1185 39.816C34.0705 39.72 34.0945 39.66 34.1905 39.636ZM39.4825 39.024C39.6745 38.832 39.7585 38.676 39.7345 38.556C39.6865 38.436 39.6385 38.448 39.5905 38.592C39.5425 38.736 39.3985 38.964 39.1585 39.276C38.9425 39.612 38.8585 39.78 38.9065 39.78C38.9785 39.78 39.0385 39.72 39.0865 39.6C39.1345 39.48 39.2665 39.288 39.4825 39.024ZM41.1385 39.708C41.2105 39.54 41.2225 39.432 41.1745 39.384C41.1505 39.312 41.0425 39.552 40.8505 40.104C40.7785 40.296 40.8025 40.332 40.9225 40.212C41.0665 40.116 41.1145 40.044 41.0665 39.996C41.0665 39.996 41.0905 39.9 41.1385 39.708ZM42.1465 36.612C42.0265 36.924 41.9665 37.104 41.9665 37.152C41.9905 37.2 42.0505 37.14 42.1465 36.972C42.2425 36.756 42.2905 36.564 42.2905 36.396C42.2905 36.276 42.2425 36.348 42.1465 36.612ZM41.8585 36.396C41.8105 36.348 41.7865 36.324 41.7865 36.324L41.7505 36.36V36.54C41.7505 36.612 41.7385 36.66 41.7145 36.684C41.6905 36.78 41.7025 36.828 41.7505 36.828C41.8225 36.828 41.8705 36.78 41.8945 36.684C41.9425 36.564 41.9305 36.468 41.8585 36.396ZM40.7785 40.824C40.8505 40.68 40.8865 40.572 40.8865 40.5C40.8865 40.476 40.8505 40.476 40.7785 40.5C40.7065 40.572 40.6705 40.668 40.6705 40.788C40.6945 40.908 40.7065 40.98 40.7065 41.004C40.7065 41.004 40.7305 40.944 40.7785 40.824ZM30.3025 38.196C30.2545 38.316 30.2665 38.376 30.3385 38.376C30.4105 38.376 30.4465 38.316 30.4465 38.196C30.4465 38.1 30.4345 38.052 30.4105 38.052C30.3625 38.052 30.3265 38.1 30.3025 38.196ZM30.9505 37.512C30.8785 37.584 30.8905 37.62 30.9865 37.62C31.0345 37.62 31.0945 37.584 31.1665 37.512C31.1905 37.44 31.1785 37.404 31.1305 37.404C31.0345 37.404 30.9745 37.44 30.9505 37.512ZM41.6425 37.404C41.7145 37.404 41.7505 37.38 41.7505 37.332L41.6425 37.224C41.5705 37.152 41.5345 37.164 41.5345 37.26C41.5345 37.356 41.5705 37.404 41.6425 37.404ZM34.1545 39.132C34.2265 39.132 34.2625 39.096 34.2625 39.024L34.2265 38.952V38.916C34.1545 38.916 34.1065 38.952 34.0825 39.024C34.0345 39.096 34.0585 39.132 34.1545 39.132ZM41.5705 38.844C41.5465 38.868 41.5345 38.916 41.5345 38.988H41.6065C41.6305 38.964 41.6305 38.892 41.6065 38.772C41.5825 38.748 41.5705 38.772 41.5705 38.844ZM41.8945 37.872V37.98C41.8945 38.1 41.9065 38.148 41.9305 38.124C41.9545 38.1 41.9545 38.028 41.9305 37.908L41.8945 37.872ZM55.5939 40.032L55.4859 40.248C55.3899 40.416 55.3179 40.5 55.2699 40.5C55.2219 40.5 55.1979 40.536 55.1979 40.608C55.2699 40.68 55.2579 40.716 55.1619 40.716C55.1139 40.716 55.0179 40.8 54.8739 40.968C54.7539 41.136 54.6819 41.28 54.6579 41.4C54.6339 41.52 54.5739 41.7 54.4779 41.94C54.3819 42.18 54.3099 42.3 54.2619 42.3C54.2139 42.3 54.1539 42.36 54.0819 42.48C54.0099 42.576 53.9259 42.696 53.8299 42.84C53.7579 42.984 53.6859 43.128 53.6139 43.272C53.5659 43.392 53.5419 43.476 53.5419 43.524C53.5419 43.62 53.5179 43.692 53.4699 43.74C53.3979 43.764 53.3019 43.872 53.1819 44.064C53.0619 44.256 53.0019 44.4 53.0019 44.496C53.0019 44.64 52.9659 44.748 52.8939 44.82C52.7979 44.916 52.7499 44.988 52.7499 45.036C52.7259 45.132 52.6419 45.276 52.4979 45.468C52.3779 45.684 52.2099 45.912 51.9939 46.152C51.7299 46.44 51.5139 46.68 51.3459 46.872C51.2019 47.064 51.1539 47.16 51.2019 47.16C51.2259 47.16 51.2139 47.196 51.1659 47.268C51.1179 47.34 51.0339 47.424 50.9139 47.52C50.7459 47.688 50.5179 47.856 50.2299 48.024C49.9659 48.216 49.8099 48.312 49.7619 48.312C49.7859 48.312 49.7019 48.288 49.5099 48.24C49.4379 48.216 49.3179 48.156 49.1499 48.06C49.0059 47.964 48.8499 47.844 48.6819 47.7L48.1779 47.268C48.0339 47.148 47.9139 47.016 47.8179 46.872L47.5299 46.44C47.5299 46.392 47.4819 46.26 47.3859 46.044C47.2659 45.852 47.2059 45.696 47.2059 45.576C47.1819 45.48 47.1699 45.324 47.1699 45.108C47.1699 44.892 47.1699 44.664 47.1699 44.424C47.1939 44.16 47.2179 43.92 47.2419 43.704C47.2659 43.464 47.2899 43.272 47.3139 43.128L47.4939 42.264L47.6379 41.832C47.7099 41.736 47.7459 41.628 47.7459 41.508C47.7939 41.316 47.8779 41.04 47.9979 40.68C48.1179 40.296 48.2379 39.948 48.3579 39.636C48.5259 39.276 48.6939 38.88 48.8619 38.448C49.0539 38.016 49.2219 37.62 49.3659 37.26C49.5099 36.9 49.6299 36.6 49.7259 36.36C49.8219 36.096 49.8699 35.952 49.8699 35.928C49.8459 35.904 49.8579 35.82 49.9059 35.676C49.9299 35.628 49.9539 35.544 49.9779 35.424C50.0259 35.28 50.0619 35.124 50.0859 34.956C50.1099 34.812 50.1339 34.68 50.1579 34.56C50.1819 34.44 50.2059 34.368 50.2299 34.344C50.2539 34.32 50.3499 34.344 50.5179 34.416C50.6859 34.464 50.8659 34.536 51.0579 34.632C51.2739 34.704 51.4779 34.788 51.6699 34.884C51.8619 34.98 51.9819 35.052 52.0299 35.1C52.1739 35.244 52.2699 35.316 52.3179 35.316C52.3899 35.316 52.4139 35.412 52.3899 35.604C52.3659 35.772 52.3059 35.916 52.2099 36.036C52.0899 36.228 52.0299 36.408 52.0299 36.576C52.0299 36.72 51.9939 36.888 51.9219 37.08C51.8739 37.272 51.7419 37.608 51.5259 38.088C51.4779 38.136 51.4419 38.184 51.4179 38.232C51.4179 38.28 51.4059 38.328 51.3819 38.376C51.3579 38.4 51.3459 38.448 51.3459 38.52C51.3459 38.544 51.3099 38.616 51.2379 38.736C51.1899 38.856 51.1299 39 51.0579 39.168C50.6499 40.08 50.2899 40.932 49.9779 41.724C49.6899 42.492 49.4499 43.212 49.2579 43.884C49.2099 44.1 49.1619 44.352 49.1139 44.64C49.0659 44.928 49.0299 45.192 49.0059 45.432C48.9819 45.672 48.9579 45.876 48.9339 46.044C48.9339 46.212 48.9579 46.296 49.0059 46.296C49.0299 46.296 49.1499 46.188 49.3659 45.972C49.6059 45.756 49.8819 45.492 50.1939 45.18C50.4819 44.868 50.7339 44.604 50.9499 44.388C51.1899 44.172 51.3219 44.064 51.3459 44.064C51.4179 44.064 51.5859 43.932 51.8499 43.668L52.7859 42.804L55.1979 40.392C55.2459 40.344 55.2939 40.296 55.3419 40.248C55.3899 40.2 55.4379 40.152 55.4859 40.104L55.5939 40.032ZM52.0659 33.372C52.0179 33.444 51.9339 33.552 51.8139 33.696C51.6939 33.84 51.5739 33.972 51.4539 34.092L51.0219 34.524L51.0939 34.164L51.3099 33.228C51.4299 32.82 51.5259 32.484 51.5979 32.22C51.6699 31.932 51.7299 31.692 51.7779 31.5C51.8499 31.284 51.9099 31.104 51.9579 30.96C52.0299 30.792 52.1019 30.624 52.1739 30.456C52.2459 30.264 52.3059 30.06 52.3539 29.844C52.4259 29.628 52.4619 29.472 52.4619 29.376C52.4619 29.16 52.4739 29.052 52.4979 29.052C52.5939 29.052 52.7739 29.16 53.0379 29.376C53.3019 29.592 53.4939 29.784 53.6139 29.952C53.7579 30.168 53.8419 30.336 53.8659 30.456C53.8899 30.576 53.8419 30.768 53.7219 31.032L53.3979 31.752C53.3259 31.944 53.1939 32.148 53.0019 32.364C52.8339 32.556 52.6539 32.736 52.4619 32.904C52.3179 33 52.1859 33.156 52.0659 33.372ZM47.9259 43.956C47.9739 43.596 48.0099 43.272 48.0339 42.984C48.0579 42.696 48.0939 42.516 48.1419 42.444C48.1659 42.348 48.1899 42.288 48.2139 42.264C48.2859 41.808 48.3579 41.556 48.4299 41.508C48.4299 41.532 48.4539 41.448 48.5019 41.256C48.5019 41.088 48.5739 40.824 48.7179 40.464V40.392L48.7539 40.356C48.7539 40.308 48.7659 40.272 48.7899 40.248C48.7899 40.224 48.8019 40.188 48.8259 40.14C48.8499 40.068 48.8739 39.996 48.8979 39.924C48.9459 39.756 48.9939 39.648 49.0419 39.6L49.1859 39.132L49.2939 38.808L49.3299 38.628C49.2819 38.628 49.2219 38.748 49.1499 38.988L48.9339 39.564C48.9099 39.588 48.8739 39.684 48.8259 39.852L48.6819 40.284L48.3219 41.364C48.1779 41.772 48.0939 42.048 48.0699 42.192C48.0459 42.336 48.0099 42.552 47.9619 42.84C47.9139 43.104 47.8779 43.368 47.8539 43.632C47.8299 43.872 47.7939 44.16 47.7459 44.496C47.7219 44.808 47.7339 44.892 47.7819 44.748C47.8299 44.58 47.8779 44.316 47.9259 43.956ZM48.5379 41.652C48.5379 41.7 48.5619 41.688 48.6099 41.616C48.6579 41.52 48.6819 41.436 48.6819 41.364C48.7059 41.316 48.7179 41.268 48.7179 41.22C48.7419 41.148 48.7779 41.076 48.8259 41.004C48.9459 40.74 49.0419 40.488 49.1139 40.248C49.2099 40.008 49.2819 39.792 49.3299 39.6L49.4739 39.276C49.4979 39.276 49.5099 39.252 49.5099 39.204C49.5099 39.156 49.5459 39.072 49.6179 38.952C49.6659 38.832 49.6779 38.76 49.6539 38.736C49.6539 38.688 49.6659 38.664 49.6899 38.664L49.7979 38.448C49.7979 38.328 49.8579 38.172 49.9779 37.98L50.1219 37.62C50.1219 37.428 50.0259 37.584 49.8339 38.088C49.7619 38.328 49.6899 38.484 49.6179 38.556C49.6179 38.604 49.6059 38.64 49.5819 38.664C49.5339 38.808 49.5099 38.868 49.5099 38.844C49.4619 38.94 49.4019 39.096 49.3299 39.312C49.2579 39.528 49.1139 39.9 48.8979 40.428L48.7899 40.752L48.6819 41.148L48.5739 41.508L48.5379 41.652ZM49.3659 38.448C49.3179 38.52 49.3179 38.556 49.3659 38.556L49.5099 38.268C49.6299 38.052 49.7139 37.884 49.7619 37.764C49.8099 37.62 49.8699 37.476 49.9419 37.332L50.2299 36.612C50.2299 36.516 50.2779 36.408 50.3739 36.288C50.4459 36.12 50.4699 36.024 50.4459 36L50.4819 35.964C50.5299 35.964 50.5539 35.928 50.5539 35.856C50.5539 35.832 50.5539 35.796 50.5539 35.748C50.5779 35.7 50.5899 35.652 50.5899 35.604C50.6139 35.508 50.6019 35.484 50.5539 35.532C50.5299 35.556 50.4939 35.616 50.4459 35.712C50.3979 35.808 50.3499 35.916 50.3019 36.036C50.2539 36.132 50.2059 36.24 50.1579 36.36C50.1339 36.456 50.1219 36.516 50.1219 36.54C50.1219 36.588 50.0739 36.696 49.9779 36.864C49.8579 37.056 49.8219 37.152 49.8699 37.152V37.188C49.8459 37.212 49.7979 37.284 49.7259 37.404C49.6779 37.5 49.6299 37.632 49.5819 37.8L49.3659 38.448ZM51.4539 45.18C51.6459 44.988 51.6459 44.928 51.4539 45C51.2859 45.048 51.0579 45.18 50.7699 45.396C50.5539 45.54 50.4099 45.612 50.3379 45.612C50.3139 45.588 50.2899 45.576 50.2659 45.576C50.2659 45.6 50.2779 45.624 50.3019 45.648C50.3979 45.816 50.5899 45.744 50.8779 45.432C51.0699 45.24 51.1899 45.168 51.2379 45.216C51.2859 45.288 51.3579 45.276 51.4539 45.18ZM55.9539 39.636C55.9779 39.612 56.0139 39.612 56.0619 39.636V39.672C56.0619 39.768 56.0139 39.864 55.9179 39.96C55.8219 40.032 55.7499 40.056 55.7019 40.032C55.6539 40.008 55.6179 40.008 55.5939 40.032L55.7379 39.888C55.8819 39.84 55.9299 39.792 55.8819 39.744C55.8819 39.672 55.9059 39.636 55.9539 39.636ZM48.5019 42.012C48.5739 42.012 48.6099 41.964 48.6099 41.868C48.6099 41.796 48.5859 41.76 48.5379 41.76C48.4899 41.76 48.4659 41.796 48.4659 41.868C48.4419 41.964 48.4539 42.012 48.5019 42.012ZM50.2299 37.404C50.2779 37.332 50.2899 37.284 50.2659 37.26C50.2419 37.236 50.2059 37.272 50.1579 37.368C50.1339 37.392 50.1219 37.428 50.1219 37.476V37.512C50.1939 37.512 50.2299 37.476 50.2299 37.404ZM48.4299 42.3C48.4779 42.204 48.4659 42.192 48.3939 42.264C48.3459 42.312 48.3219 42.372 48.3219 42.444C48.3699 42.492 48.3819 42.516 48.3579 42.516C48.3579 42.516 48.3819 42.444 48.4299 42.3ZM48.2139 42.912L48.1419 43.056C48.1419 43.128 48.1539 43.164 48.1779 43.164C48.2019 43.164 48.2139 43.128 48.2139 43.056V42.912ZM49.2219 41.004C49.1739 41.004 49.1499 41.04 49.1499 41.112C49.1499 41.16 49.1619 41.184 49.1859 41.184L49.2219 41.112V41.004ZM48.7899 42.444C48.8139 42.444 48.8259 42.42 48.8259 42.372V42.3C48.7779 42.3 48.7539 42.324 48.7539 42.372C48.7059 42.42 48.7179 42.444 48.7899 42.444ZM50.0139 38.88C50.0619 38.832 50.0619 38.808 50.0139 38.808C49.9659 38.808 49.9419 38.832 49.9419 38.88C49.9419 38.952 49.9539 38.988 49.9779 38.988V38.952L50.0139 38.88ZM48.1779 43.308C48.2259 43.26 48.2259 43.236 48.1779 43.236C48.1299 43.236 48.1059 43.26 48.1059 43.308L48.1419 43.344L48.1779 43.308ZM49.1139 41.436C49.1379 41.412 49.1379 41.376 49.1139 41.328L49.0779 41.292V41.364C49.0779 41.388 49.0899 41.412 49.1139 41.436ZM48.2499 42.48C48.2739 42.552 48.3099 42.564 48.3579 42.516C48.3339 42.516 48.3099 42.504 48.2859 42.48H48.2499Z" fill="#FF65AF"/>
</svg>
