<svg width="21" height="21" viewBox="0 0 21 21" fill="none" xmlns="http://www.w3.org/2000/svg">
<path d="M6.5625 4.88542C6.5625 5.73723 5.98008 6.47033 4.92105 6.47033C3.92438 6.47033 3.28125 5.77894 3.28125 4.92712C3.28125 4.05285 3.90469 3.28125 4.92188 3.28125C5.93906 3.28125 6.54281 4.01115 6.5625 4.88542ZM3.28125 17.7188V7.29167H6.5625V17.7188H3.28125Z" fill="white"/>
<path d="M7.95797 10.6914C7.95797 9.4224 7.91648 8.36205 7.875 7.44626H10.7984L10.9431 8.86143H11.005C11.4165 8.19532 12.4252 7.21875 14.1138 7.21875C16.1733 7.21875 17.7188 8.61092 17.7188 11.6063V17.7188H14.4652V12.0835C14.4652 10.7743 13.9714 9.77558 12.8384 9.77558C11.9745 9.77558 11.5418 10.4819 11.3149 11.0643C11.2319 11.2729 11.2116 11.5636 11.2116 11.8552V17.7188H7.95797V10.6914Z" fill="white"/>
</svg>
