<svg width="23" height="23" viewBox="0 0 23 23" fill="none" xmlns="http://www.w3.org/2000/svg">
<path d="M11.5 5.01836C13.611 5.01836 13.8611 5.02639 14.6947 5.06437C15.4656 5.09958 15.8843 5.22837 16.1629 5.33665C16.5319 5.48007 16.7953 5.65141 17.0719 5.92807C17.3486 6.20473 17.5199 6.4681 17.6634 6.8371C17.7716 7.11574 17.9004 7.5344 17.9356 8.3052C17.9736 9.13893 17.9816 9.38897 17.9816 11.5C17.9816 13.6111 17.9736 13.8611 17.9356 14.6948C17.9004 15.4657 17.7716 15.8843 17.6634 16.1629C17.5199 16.5319 17.3486 16.7953 17.0719 17.072C16.7953 17.3486 16.5319 17.52 16.1629 17.6634C15.8843 17.7716 15.4656 17.9005 14.6947 17.9356C13.8612 17.9737 13.6112 17.9817 11.5 17.9817C9.38878 17.9817 9.13875 17.9737 8.3052 17.9356C7.53434 17.9004 7.11574 17.7716 6.8371 17.6634C6.4681 17.52 6.20467 17.3486 5.92801 17.072C5.65135 16.7953 5.48001 16.5319 5.33665 16.1629C5.22837 15.8843 5.09952 15.4657 5.06437 14.6948C5.02633 13.8611 5.0183 13.6111 5.0183 11.5C5.0183 9.38897 5.02633 9.13893 5.06437 8.30526C5.09958 7.5344 5.22837 7.11574 5.33665 6.8371C5.48001 6.4681 5.65135 6.20473 5.92801 5.92807C6.20473 5.65135 6.4681 5.48007 6.8371 5.33665C7.11568 5.22837 7.53434 5.09958 8.3052 5.06437C9.13887 5.02639 9.38891 5.01836 11.5 5.01836ZM11.5 3.59375C9.35277 3.59375 9.08353 3.60283 8.24028 3.64131C7.39869 3.67973 6.82395 3.8134 6.3211 4.00883C5.80114 4.21087 5.36024 4.48123 4.9207 4.92076C4.48116 5.3603 4.21087 5.8012 4.00883 6.3211C3.81333 6.82401 3.67973 7.39876 3.64131 8.24028C3.60283 9.08353 3.59375 9.35277 3.59375 11.5C3.59375 13.6472 3.60283 13.9165 3.64131 14.7597C3.67973 15.6013 3.81333 16.1761 4.00883 16.6789C4.21081 17.1988 4.48116 17.6398 4.9207 18.0793C5.36024 18.5188 5.80114 18.7891 6.3211 18.9912C6.82401 19.1867 7.39869 19.3203 8.24022 19.3587C9.08353 19.3972 9.35277 19.4062 11.5 19.4062C13.6472 19.4062 13.9165 19.3972 14.7597 19.3587C15.6012 19.3203 16.176 19.1867 16.6788 18.9912C17.1988 18.7892 17.6397 18.5188 18.0792 18.0793C18.5188 17.6398 18.7891 17.1989 18.9912 16.6789C19.1866 16.176 19.3203 15.6013 19.3587 14.7598C19.3972 13.9165 19.4062 13.6472 19.4062 11.5C19.4062 9.35277 19.3972 9.08353 19.3587 8.24028C19.3203 7.39876 19.1866 6.82401 18.9912 6.32116C18.7891 5.8012 18.5188 5.3603 18.0792 4.92076C17.6397 4.48123 17.1988 4.21081 16.6789 4.00883C16.176 3.8134 15.6012 3.67973 14.7597 3.64131C13.9165 3.60283 13.6472 3.59375 11.5 3.59375ZM11.5 7.44002C9.25771 7.44002 7.44002 9.25784 7.44002 11.5C7.44002 13.7423 9.25771 15.56 11.5 15.56C13.7422 15.56 15.56 13.7423 15.56 11.5C15.56 9.25778 13.7422 7.44002 11.5 7.44002ZM11.5 14.1354C10.0445 14.1354 8.86456 12.9555 8.86456 11.5C8.86456 10.0445 10.0445 8.86456 11.5 8.86456C12.9555 8.86456 14.1354 10.0445 14.1354 11.5C14.1354 12.9555 12.9555 14.1354 11.5 14.1354ZM16.6691 7.27961C16.6691 7.80364 16.2444 8.22836 15.7203 8.22836C15.1964 8.22836 14.7716 7.80364 14.7716 7.27961C14.7716 6.75563 15.1964 6.33086 15.7203 6.33086C16.2444 6.33086 16.6691 6.75563 16.6691 7.27961Z" fill="white"/>
</svg>
